<svg width="153" height="270" viewBox="0 0 153 270" fill="none" xmlns="http://www.w3.org/2000/svg">
<path d="M109.449 11.1897C111.573 10.6489 114.705 10.0121 116.083 8.13265C117.591 6.07589 114.865 0.436775 116.172 0C117.95 1.01984 118.204 5.10356 118.97 6.93985C120.921 11.6214 125.235 14.1969 128.469 17.9632C129.6 19.1881 136.066 28.1207 136.587 29.4048C140.724 35.3411 149.212 43.9497 150.045 50.9329C147.949 54.3156 153.14 63.0753 150.583 67.5437C150.01 68.5156 149.308 71.2648 148.666 72.6418C148.068 73.9219 146.086 77.8102 145.865 78.9252L146.009 79.0473C147.161 78.4328 147.109 75.3825 149.312 74.2822C149.312 74.9288 148.074 77.3428 147.674 78.418L147.87 78.7685C147.288 80.4704 145.709 83.1828 144.762 84.8984C139.971 93.5797 133.248 102.887 124.216 107.503C120.446 109.43 115.892 110.808 112.05 112.208C108.016 113.678 98.9316 115.227 96.2118 118.045C93.9984 120.338 88.6376 129.725 87.6404 132.792C86.1333 137.426 84.8489 142.672 83.6527 147.326C82.2075 152.78 80.8581 158.258 79.605 163.757C78.1203 170.576 76.8339 177.861 75.5529 184.692C73.1919 197.28 71.6179 210.452 66.7176 222.38C62.7935 231.935 56.5811 239.614 49.3405 246.761C44.4021 251.638 39.6321 252.832 43.9776 259.965C42.7918 262.801 41.2376 265.776 38.8039 267.752C38.4246 268.588 37.2082 269.552 36.3352 269.742C28.8158 271.384 24.9448 264.843 21.3779 259.596C18.9433 256.014 17.7628 253.271 16.5334 249.154C12.5101 237.949 13.203 231.47 15.3241 219.719C15.962 213.247 17.0851 207.689 18.9456 201.446C23.1392 187.38 26.0335 172.795 29.6486 158.591C27.7655 156.122 25.2628 154.659 22.9638 152.125C22.4897 151.863 20.4146 149.341 19.982 148.785C13.6081 140.586 7.94471 131.541 4.999 121.506C4.59846 120.142 4.08746 118.626 3.8403 117.235C2.82394 111.512 1.01192 105.932 0.266896 100.169C-1.24899 88.4455 3.95617 77.419 9.2126 67.3023C10.4038 65.0097 11.9184 62.9546 13.2693 60.7643C14.7127 58.5952 15.9751 55.9591 17.5813 53.958C24.2254 45.6799 31.8234 37.6283 40.6095 31.592C42.4361 30.3371 45.1997 28.2454 47.3066 27.6054C51.4616 24.4404 61.0344 20.3571 66.0914 19.2596C69.7348 18.0593 76.9517 16.5327 80.8852 15.6622C83.4426 15.1873 85.7259 15.2363 88.3258 14.7714C90.0622 14.4259 91.9278 13.7697 93.6756 13.4888C96.6853 13.0049 100.331 12.6377 103.37 12.5135C104.468 12.1205 107.906 11.5706 109.449 11.1897Z" fill="#CD87A2"/>
<path d="M18.6444 93.8416C18.599 94.8341 18.8284 100.415 19.5549 100.811L19.6234 99.9119C21.2175 99.6407 23.033 98.6522 24.7734 98.1075C24.1715 94.3915 23.1852 90.3678 22.8294 86.6171C23.2817 85.6633 24.8215 85.8196 24.8353 83.8697C24.8407 83.08 25.4803 82.7801 26.1153 82.3929C26.267 81.5027 25.9144 80.3036 25.7122 79.3811C26.4137 78.5101 27.8195 78.38 28.8288 78.7268C28.8809 78.7772 29.3037 79.1859 29.3044 79.1886C29.8054 81.0167 28.4301 90.4151 30.6936 91.1805L31.1856 90.8336L31.2817 91.6875C31.8748 91.1734 33.0828 85.7831 33.3531 84.6862C34.4589 83.9671 34.7884 83.9866 35.7485 84.8725L35.8535 84.9708C36.3603 84.8085 37.1908 84.6991 37.5859 84.536C39.9146 83.5747 37.3279 78.2513 40.1515 77.818C40.2995 79.7493 40.2099 81.9699 40.2299 83.925C40.0798 85.7221 38.1982 87.2266 37.8475 89.1467C36.8048 94.8541 36.8894 100.371 38.4937 105.964C38.6986 106.679 38.6502 108.045 38.8094 108.906C39.4359 107.31 37.6153 101.442 37.5013 99.7137C37.3596 97.5648 37.4442 92.0903 37.8572 90.2007L37.8927 90.0425C38.352 87.9255 40.07 86.3172 40.5406 84.1415C41.0795 81.6486 40.7165 78.6682 40.9845 76.0805C41.0908 75.0553 43.9344 63.1375 44.0954 62.9341C45.8066 63.9262 52.5823 64.3999 54.2403 62.6713C55.0853 61.7903 57.3994 60.0472 58.6187 60.1659C60.8084 61.519 68.228 69.0136 69.5459 71.2362C68.9361 74.3528 70.8478 76.7469 69.1895 79.22C68.3497 80.4724 70.3474 80.9107 70.4693 81.7467C70.5331 82.1831 70.0881 82.4181 70.4118 83.3315C72.3051 83.985 70.9261 83.3248 71.8341 83.4801L71.4419 84.3282L71.6038 84.5912C72.1386 84.7085 73.1531 85.0517 73.2125 85.7396C73.3069 88.001 74.8686 92.7053 74.6316 94.6753C74.4562 96.1332 71.7374 96.097 73.4171 99.3734C74.2305 100.96 72.1763 107.143 72.1623 109.168C72.1573 109.915 69.9644 111.039 69.3604 111.251C68.7884 111.59 68.203 114.441 67.6017 115.131C66.9601 115.867 66.2542 115.966 66.0212 116.78L66.1705 116.911L66.974 116.657C67.6282 116.793 67.6903 116.921 68.2023 117.401L68.1102 117.69C66.6131 118.143 64.8163 117.644 63.663 117.996C62.5281 118.342 60.7181 118.375 59.956 118.633C60.3511 118.795 65.6789 118.201 66.58 118.145C72.4135 117.777 78.16 118.241 83.9525 117.576C89.5015 116.939 94.0719 114.648 99.3654 113.87C101.345 113.626 103.326 112.158 105.218 111.775C119.069 108.973 130.33 100.985 139.004 90.0377C141.777 86.5352 143.449 82.544 146.01 79.0481C147.162 78.4336 147.11 75.3833 149.313 74.283C149.313 74.9296 148.075 77.3435 147.675 78.4188L147.871 78.7693C147.29 80.4712 145.71 83.1835 144.764 84.8992C139.973 93.5805 133.249 102.887 124.217 107.504C120.447 109.431 115.893 110.809 112.051 112.209C108.018 113.679 98.933 115.228 96.2132 118.046C93.9998 120.339 88.6389 129.726 87.6417 132.792C86.1346 137.426 84.8502 142.673 83.654 147.327C82.2088 152.78 80.8594 158.259 79.6063 163.758C78.1217 170.577 76.8352 177.862 75.5542 184.693C73.1933 197.281 71.6192 210.453 66.719 222.381C62.7948 231.935 56.5825 239.614 49.3419 246.762C44.4035 251.638 39.6334 252.832 43.9789 259.965C42.7932 262.802 41.2389 265.777 38.8053 267.753C38.426 268.588 37.2095 269.553 36.3366 269.743C28.8171 271.385 24.9461 264.844 21.3792 259.597C18.9447 256.014 17.7641 253.272 16.5348 249.154C12.5114 237.95 13.2044 231.471 15.3254 219.72C15.9633 213.248 17.0864 207.69 18.947 201.447C23.1406 187.381 26.0348 172.796 29.6499 158.592C27.7668 156.123 25.2642 154.66 22.9651 152.126C23.2098 152.003 23.2266 152.034 23.5117 151.995C26.4993 154.402 30.5073 156.936 33.3848 159.638C34.5885 160.768 42.7188 165.713 43.9139 165.496C43.3396 164.746 41.9852 165.096 41.1076 164.102C42.159 164.262 43.7435 164.89 44.6337 164.7C45.0078 163.108 39.9119 159.715 39.0449 158.269C38.6012 157.53 38.3928 156.196 38.0748 155.256C36.3484 154.366 36.2772 152.524 35.4046 151.561C34.3089 150.357 29.7351 143.559 28.8915 143.249C29.0455 143.916 29.3565 144.241 29.7614 144.795C27.741 143.166 26.918 142.445 24.978 140.721C25.2404 140.144 25.2733 140.116 25.1852 139.511C24.6413 138.784 23.7824 138.797 22.9328 138.31C22.1624 137.868 22.3555 137.616 22.1196 136.61C21.2683 135.841 20.1665 136.01 20.0413 135.838C18.5064 133.727 17.0924 131.507 15.5641 129.378L14.9374 128.403C14.819 127.259 15.1937 124.392 16.5727 124.102C16.9047 124.751 16.968 124.862 17.4676 125.391L17.8937 125.398C17.8604 124.679 17.4669 124.7 17.1829 124.162C15.2035 120.4 12.6669 116.939 13.7458 112.463C14.2901 110.205 14.0063 107.244 14.382 105.056C15.3377 104.332 15.3204 105.567 16.5171 105.197C18.1165 102.978 16.6892 98.3279 16.7655 95.7204L18.6444 93.8416Z" fill="#DDC4B9"/>
<path d="M16.5312 249.152C17.8073 250.436 18.0909 253.245 18.8234 253.941C21.1535 256.158 24.7915 257.694 27.429 259.553C28.684 260.43 30.0859 263.448 31.0472 264.277C31.9358 265.044 34.9049 264.396 36.0992 265.596L35.9311 265.75L34.168 265.483C33.315 266.644 35.0772 268.332 30.7865 268.54L30.7628 268.799C31.7779 269.68 33.7545 269.574 35.0695 269.582C36.5865 269.593 37.4182 268.72 38.5448 267.682L38.8017 267.751C38.4225 268.586 37.206 269.551 36.333 269.741C28.8136 271.383 24.9426 264.842 21.3757 259.595C18.9412 256.012 17.7606 253.27 16.5312 249.152Z" fill="#B6C373"/>
<path d="M26.1485 131.18C26.4968 131.39 27.5592 132.272 27.6838 132.312C27.8511 131.839 27.8572 131.788 28.136 131.346L28.4238 131.368C28.567 131.968 27.8962 133.238 27.9845 133.458C29.3499 136.845 31.7553 140.619 34.3373 143.27C35.695 144.664 35.604 145.456 35.4664 147.221C34.2984 143.087 33.9147 144.498 32.1341 141.566L31.8726 141.363C31.1972 141.258 31.0759 141.111 30.5993 141.36L30.5009 141.745C31.352 143.543 34.196 144.266 34.1268 146.767L33.918 146.89C33.5888 144.075 29.4614 142.803 28.7856 141.179C27.6011 138.333 22.0727 133.393 26.1485 131.18Z" fill="#D08EA8"/>
<path d="M26.2487 104.262C26.3367 104.373 26.4248 104.485 26.5128 104.597C26.7337 108.743 26.842 114.206 27.7179 118.172C28.5992 122.163 30.7216 122.601 33.9309 124.395C34.037 126.986 34.5005 128.913 35.8513 131.168C36.2956 131.91 37.4524 133.149 37.3232 134.01L36.9487 134.087C36.1514 133.316 36.7003 132.738 35.8761 131.881C35.051 131.023 34.4925 129.246 34.0495 128.075C33.868 127.282 33.8457 126.62 33.7279 125.774C33.3282 122.906 29.1307 123.643 28.2718 120.598C28.1147 120.041 27.3953 119.051 27.12 118.473L27.0627 118.35L26.6372 118.444L26.3619 118.248L26.202 118.326C26.609 119.091 26.5828 124.016 26.2616 124.864C26.077 124.115 25.8726 120.55 25.7963 119.583C25.6087 117.205 23.7992 106.831 24.7059 105.307C25.184 105.663 25.4205 105.705 25.9949 105.9C26.0234 105.147 26.0249 104.976 26.2487 104.262Z" fill="#D08EA8"/>
<path d="M32.9883 137.668C33.3653 137.75 34.4202 137.995 34.6769 138.273C38.0334 141.915 39.2842 146.281 41.1189 150.744C41.031 150.53 42.5035 151.747 42.6178 151.874C42.7549 152.697 42.7019 152.47 42.2243 153.351C42.3706 154.862 45.032 157.65 46.1543 158.757L46.0309 158.913C41.8419 155.414 39.6587 149.065 37.9484 144.007C37.5414 142.804 35.5241 140.202 34.6 138.672C33.8775 138.44 33.7162 138.285 33.156 137.811L32.9883 137.668Z" fill="#D08EA8"/>
<path d="M136.587 29.4023C140.724 35.3386 149.212 43.9472 150.046 50.9304C147.949 54.3131 153.14 63.0728 150.583 67.5412C150.679 66.8489 151.167 63.8049 151.067 63.3704C150.412 60.5476 148.958 51.1953 148.099 49.0687C147.816 49.2646 146.77 49.9937 146.544 50.0027C143.154 50.0606 141.818 48.6867 138.554 50.6178C135.96 52.153 137.192 52.5673 136.187 53.6092C134.808 53.6369 133.718 53.6373 132.33 53.5663L131.913 52.9901L131.681 53.0082C130.39 54.8755 130.484 59.2868 127.975 59.1214C126.816 58.4585 126.48 56.8246 125.454 56.6939C125.02 57.1722 124.961 57.2766 124.412 57.5908L124.309 57.3612C124.589 56.7075 128.647 52.4531 129.27 51.6085C129.85 50.8635 129.858 48.5192 130.277 47.8621C131.51 45.9287 132.317 44.7935 132.736 42.4545C132.814 42.0186 133.443 40.7285 133.769 40.5189C133.734 41.3841 132.188 45.4042 131.798 46.4808C132.463 46.5606 132.792 46.5687 133.404 46.2501C134.289 45.7898 134.373 44.9245 135.093 44.4125C136.035 43.7426 137.256 43.3493 138.171 42.5987C138.696 42.1697 139.159 41.3809 139.244 40.6395C139.499 38.3942 138.85 35.1131 138.479 32.8943C138.367 32.2103 136.473 30.8681 136.587 29.4023Z" fill="#B45978"/>
<path d="M109.452 11.1897C111.575 10.6489 114.708 10.0121 116.086 8.13265C117.594 6.07589 114.868 0.436775 116.175 0C117.952 1.01984 118.207 5.10356 118.972 6.93985C120.924 11.6214 125.237 14.1969 128.472 17.9632C128.496 18.588 128.52 18.6863 128.363 19.28C127.812 18.1924 127.215 17.0057 126.348 16.123C124.775 14.5238 120.367 11.3418 119.688 9.23354L119.432 9.10893C119.224 9.59968 119.605 11.4091 119.706 12.0886C119.51 12.4837 119.452 12.5098 119.504 12.9524C120.286 12.9153 120.754 12.8397 121.511 13.0557C122.057 14.8276 122.735 14.846 122.871 16.6556C122.314 16.6487 122.076 12.5114 120.147 13.118C119.896 13.3921 119.456 13.8566 119.415 14.2229C119.148 16.6587 119.529 19.6322 119.626 22.112C119.746 24.8174 119.641 27.5283 119.315 30.2169C119.091 29.6384 119.551 25.171 119.426 24.0216C119.217 22.0853 119.056 15.354 118.71 13.827C118.189 14.3696 117.974 14.6009 117.358 15.0548L117.151 14.9237L117.087 14.2079C115.484 16.4937 117.679 20.4622 117.787 22.486C117.369 22.3333 117.152 22.1524 116.777 21.9084L116.409 22.0011C115.487 23.3193 115.958 26.9446 115.812 28.8788L115.624 28.7071C115.564 26.9986 115.397 23.6646 115.871 22.0255C115.97 21.6843 116.233 21.6771 116.615 21.5228C117.037 20.7843 116.004 20.0235 116.099 18.9885C116.224 17.6154 115.765 15.6137 116.445 14.3848L116.28 14.2248C115.416 14.4755 114.965 14.4623 114.086 14.4957C113.643 15.9961 113.229 18.7238 112.332 19.8858L112.116 19.8439C112.542 18.5752 113.978 16.0529 112.969 15.0358C111.216 14.5863 109.121 15.8619 107.108 16.0375L107.008 15.8617C107.71 14.4517 110.917 13.8824 112.378 13.4844C112.469 13.3948 113.14 13.1037 113.304 13.0276C112.704 12.8453 112.378 12.5617 112.236 11.9786C112.489 11.4481 112.981 11.2493 113.508 10.9296L113.482 10.6877C111.795 10.6793 110.915 11.4822 109.412 11.4447L109.452 11.1897Z" fill="#D9D9C6"/>
<path d="M47.3086 27.6036C51.4636 24.4387 61.0364 20.3554 66.0934 19.2578C64.9883 20.5711 60.64 20.3312 60.767 22.3217C60.8009 22.8537 60.8599 22.8429 61.1863 23.0898C62.0526 22.8197 62.5448 22.0343 63.8096 21.4623L63.9644 21.5919C62.5354 22.8072 60.1097 24.8502 58.469 25.6356C58.36 24.9123 59.1465 25.0522 58.8061 24.2424C57.601 24.1009 55.0293 24.0394 53.8665 24.388C52.3029 24.8565 48.8664 27.7072 47.3086 27.6036Z" fill="#B45978"/>
<path d="M88.3281 14.7696C90.0645 14.4241 91.9301 13.7679 93.6779 13.487C96.6876 13.0031 100.333 12.6359 103.373 12.5117C104.499 13.2369 105.647 12.6476 106.247 13.4782C105.922 13.6672 105.949 13.668 105.576 13.6695L105.444 13.4259C104.316 13.4001 101.677 13.5668 100.7 14.05C98.791 14.2501 89.413 15.4341 88.3281 14.7696Z" fill="#D08EA8"/>
<path d="M100.699 14.0508L101.046 14.2633C97.3182 14.577 98.2923 18.986 93.0108 15.1802C92.9247 15.1181 83.4908 15.801 82.6736 15.8271C82.0772 15.8458 81.3559 16.4451 80.8368 16.9161C80.6728 16.6756 80.8368 16.0346 80.8864 15.6612C83.4439 15.1863 85.7271 15.2352 88.3271 14.7703C89.412 15.4349 98.7899 14.2508 100.699 14.0508Z" fill="#B45978"/>
<path d="M15.5639 129.375C17.0923 131.504 18.5063 133.724 20.0411 135.835C20.1664 136.007 21.2682 135.838 22.1195 136.607C22.3554 137.614 22.1622 137.865 22.9326 138.307C23.7823 138.794 24.6411 138.781 25.185 139.509C25.2732 140.114 25.2402 140.141 24.9779 140.719C25.1137 141.409 25.5507 141.977 25.3628 142.664L25.1608 142.602C24.9762 141.654 24.7732 140.71 24.5519 139.77C23.5376 138.87 20.8353 138.357 20.4164 137.619C19.2188 135.512 16.1322 131.971 15.3086 129.877L15.5639 129.375Z" fill="#D08EA8"/>
<path d="M103.37 12.5153C104.468 12.1223 107.906 11.5723 109.449 11.1914L109.41 11.4465L108.915 11.6734L108.841 11.9072C107.987 14.5875 106.681 13.5566 104.481 14.417C103.795 14.6856 102.554 15.9245 101.871 15.8649C102.583 14.9125 104.488 13.9463 105.574 13.6731C105.947 13.6716 105.92 13.6708 106.245 13.4818C105.644 12.6511 104.497 13.2405 103.37 12.5153Z" fill="#C1A8B7"/>
<path d="M80.7851 26.9688C81.2702 27.0815 81.3046 27.3268 81.4086 27.6966C81.1031 28.5629 81.3063 28.2472 80.6025 28.8817C80.0215 28.3574 79.8937 28.4304 79.7852 27.8306C80.1209 27.5462 80.4541 27.2588 80.7851 26.9688Z" fill="#B45978"/>
<path d="M150.048 50.9297C152.344 58.9421 153.774 64.8817 150.358 72.8954C149.879 74.0188 148.528 78.1583 147.872 78.7654L147.676 78.4149C148.076 77.3396 149.314 74.9256 149.314 74.279C147.111 75.3793 147.163 78.4296 146.011 79.0442L145.867 78.9221C146.088 77.807 148.07 73.9187 148.668 72.6386C149.31 71.2616 150.012 68.5124 150.585 67.5405C153.142 63.0721 147.951 54.3124 150.048 50.9297Z" fill="#CB9EA8"/>
</svg>
