<svg width="256" height="219" viewBox="0 0 256 219" fill="none" xmlns="http://www.w3.org/2000/svg">
<path d="M64.6206 76.7485C64.6708 74.1894 64.6022 71.9551 64.7207 69.3466C64.9624 63.2041 65.8659 56.7915 66.109 50.682C66.7254 35.1898 65.2014 18.4552 77.5454 6.72948C80.798 3.63989 82.9128 2.85942 87.1403 1.60666C88.4163 1.22837 90.0582 0.000969131 91.5248 0C93.0337 0.204164 94.9158 1.26568 95.913 2.36936C96.3855 2.89237 96.9426 3.95082 97.0448 4.54684C97.736 8.57874 98.3661 12.4354 99.45 16.4006C100.481 20.1721 101.72 23.6605 103.544 27.1237C105.93 31.9739 112.594 38.7467 112.539 44.1917C112.52 46.1676 110.459 48.9663 109.577 50.6854C108.118 53.5358 107.194 56.8545 106.986 60.0569C106.944 60.7104 106.973 62.1114 107.325 62.5932C108.331 61.937 114.418 51.9485 116.322 50.5595C117.06 50.0207 118.948 46.7864 119.9 45.9849C125.635 40.1477 132.335 35.5417 139.122 31.0203C142.232 29.107 145.081 26.1507 148.098 24.2099C151.505 22.018 155.701 19.511 159.445 18.0094C167.09 14.9422 166.306 23.3454 170.895 24.4206C174.064 25.1633 179.574 23.3042 182.22 27.707C185.166 33.5452 185.025 44.9606 185.116 51.2937C185.211 58.0115 185.431 64.8298 184.927 71.1673C184.663 74.6547 184.098 78.1126 183.236 81.502C181.916 86.8813 180.663 90.5706 178.178 95.5587C177.605 96.7108 175.373 100.881 175.088 101.753C179.774 101.409 184.523 100.363 189.01 98.9686C191.848 98.0867 194.532 96.8919 197.512 96.5395C201.478 96.0706 205.185 96.806 209.095 97.2545C220.694 98.5858 241.643 101.663 250.621 109.379C251.923 110.498 252.974 111.779 254.148 113.015C254.631 113.522 255.244 113.964 255.67 114.517C255.862 114.765 255.959 115.113 255.988 115.424C256.158 117.23 254.457 119.503 253.3 120.787C248.041 126.626 230.251 129.501 222.779 131.497C219.429 132.392 216.018 133.6 212.855 135.02C209.17 136.674 205.382 138.879 202.18 141.344C198.785 143.957 195.708 146.777 192.087 149.128C190.557 150.121 188.884 150.935 187.194 151.617C185.954 152.117 184.636 152.5 183.496 153.208C184.4 156.063 185.455 160.303 186.678 162.946C189.333 168.683 192.836 172.944 194.106 179.387C194.579 181.791 194.807 184.234 194.788 186.683C194.749 189.293 194.581 191.878 194.749 194.454C194.918 197.087 197.162 200.24 195.742 202.559C195.694 202.958 194.442 204.405 194.02 204.3C190.918 203.531 187.899 201.873 184.751 201.02C178.897 199.435 172.653 199.028 166.912 196.985C161.739 195.142 157.214 191.548 152.306 189.114C148.208 187.075 144.029 184.995 139.806 183.223C136.323 181.765 132.624 180.634 129.174 179.07C125.127 177.249 121.295 174.842 117.495 172.561C117.372 176.121 117.225 189.678 110.966 187.576C109.047 186.801 107.169 186.048 105.101 186.804C99.3124 188.918 96.017 194.636 92.0875 198.833C85.4303 205.943 78.1891 212.625 69.12 216.474C67.6057 217.112 66.2529 219.076 64.5209 218.68C63.4612 218.438 63.0379 216.865 63.0589 215.925C62.7258 213.872 62.1873 211.8 61.9048 209.75C60.7938 201.69 61.914 193.767 63.3006 185.814C64.3609 179.734 66.5677 173.868 66.3092 167.609C66.263 166.49 66.3894 165.53 65.9112 164.467C64.7561 163.06 62.091 161.293 62.0938 160.035C62.1007 156.784 65.7206 153.44 67.402 151.3C66.6537 150.867 65.7871 150.295 65.1355 149.724C63.1808 148.008 60.8174 146.811 58.78 145.251C57.3476 144.153 55.8597 142.733 54.5211 141.494C51.7677 138.944 48.7366 136.501 46.2105 133.726C42.4057 129.546 38.9768 124.843 34.7444 121.086C26.6066 114.698 16.3556 112.032 8.16761 105.462C2.78505 101.408 -3.93846 97.2001 2.88649 90.4444C5.89806 87.4632 8.77961 86.0473 12.6828 84.4368C15.4929 83.2774 18.2412 83.5423 21.0759 82.9815C25.977 82.0117 30.916 81.2104 35.8103 80.2183C38.6119 79.642 40.7619 77.8708 43.3288 76.7274C48.0632 74.6236 53.9653 73.9416 59.0253 75.1598C60.9608 75.626 62.683 76.3412 64.6206 76.7485ZM130.111 78.7824C130.3 78.2403 130.615 77.5763 130.492 77.0553L130.143 76.8317C129.95 77.4843 129.736 77.9685 129.814 78.6382C130.035 78.8026 129.927 78.7823 130.111 78.7824Z" fill="#EAE6D6"/>
<path d="M103.177 133.93C103.66 134.419 103.905 134.592 104.165 135.211C103.924 135.408 103.942 135.422 103.667 135.555C103.498 136.831 104.549 137.601 105.489 138.275C104.824 138.481 104.626 138.444 103.912 138.441C103.208 138.428 103.412 138.291 103.059 138.622L103.077 139.039L103.468 138.767C104.149 139.003 105.72 139.199 105.382 140.487C105.277 140.886 104.759 141.512 104.424 141.754C103.199 143.511 100.129 150.508 100.437 152.842C100.701 153.114 100.545 153.023 100.903 153.12C101.719 152.472 103.075 152.345 103.372 151.771C103.042 151.778 102.803 151.872 102.479 151.957L102.454 151.742C103.083 150.633 104.938 149.668 106.122 149.255L106.104 149.823C105.965 151.204 105.742 152.417 105.697 153.845C105.5 159.996 108.653 163.199 112.153 167.73C112.361 167.999 112.917 168.5 113.051 168.686L117.495 172.562C117.372 176.122 117.225 189.679 110.966 187.578C109.047 186.802 107.169 186.05 105.101 186.805C99.3124 188.92 96.0171 194.638 92.0876 198.834C85.4303 205.944 78.1891 212.626 69.12 216.475C67.6057 217.113 66.253 219.078 64.521 218.682C63.4612 218.44 63.0379 216.866 63.0589 215.926C62.7258 213.873 62.1873 211.801 61.9048 209.751C60.7939 201.691 61.914 193.769 63.3007 185.815C64.3609 179.736 66.5678 173.869 66.3092 167.61C66.263 166.491 66.3895 165.531 65.9112 164.469C64.7561 163.062 62.091 161.295 62.0938 160.036C62.1007 156.785 65.7206 153.442 67.402 151.301C67.7233 151.369 70.7551 153.06 71.2732 153.322C76.942 156.181 83.4053 158.428 89.5867 155.698C90.0687 155.485 90.639 155.446 91.0989 155.184L91.531 155.12L91.7468 154.91C93.4862 153.934 94.2841 152.661 95.5674 151.33L95.7283 151.166C97.7098 148.371 98.3041 147.16 99.0435 143.892C99.5326 142.608 99.9049 139.954 99.9337 138.575L100.084 138.459C100.875 138.51 101.56 138.562 102.358 138.541C103.076 137.459 101.363 136.944 102.171 135.892C102.717 135.708 102.912 135.685 103.332 135.28C103.524 134.553 103.459 134.771 103.177 133.93Z" fill="#DCD9C3"/>
<path d="M65.9112 164.467C65.7135 163.758 65.4329 163.268 66.571 163.01C67.2714 162.851 68.3038 163.186 68.9685 163.444L69.0428 163.741C69.0806 163.89 69.2657 164.509 69.3266 164.554C70.6223 165.512 72.5131 166.657 73.7783 167.571L73.6119 167.713C72.7457 167.518 71.9382 166.592 71.254 165.957C71.3811 167.256 72.1256 168.794 73.4308 169.24L73.7075 169.196C75.8955 168.87 76.1636 170.228 77.9484 171.086C79.8536 172.002 82.179 172.423 83.9506 173.541C84.3163 173.777 85.2526 175.44 85.5401 175.581C87.4188 176.493 90.6617 176.548 92.7653 176.949C93.126 177.017 93.4532 176.731 93.6844 176.555C94.3164 176.731 96.281 178.164 96.7661 178.681L96.6785 178.85L96.256 178.773C97.0876 182.014 102.397 183.738 94.6159 188.152C93.4337 188.822 92.0488 189.616 90.7838 190.186C87.2582 191.215 85.6152 193.747 82.4614 195.388C79.7714 196.789 77.0644 197.782 74.4515 199.231C72.9732 200.145 71.4654 202.308 70.1923 203.427C68.2287 205.156 68.5194 206.097 67.7735 208.315C67.617 208.78 66.0191 210.418 65.7422 211.027C65.2032 212.723 65.8052 213.514 63.3184 214.375C62.9998 214.805 63.0734 215.354 63.0589 215.924C62.7258 213.871 62.1873 211.799 61.9048 209.749C60.7939 201.689 61.914 193.767 63.3007 185.813C64.3609 179.734 66.5678 173.867 66.3092 167.608C66.263 166.489 66.3895 165.529 65.9112 164.467Z" fill="#EAE6D6"/>
<path d="M103.175 133.93C103.659 134.419 103.904 134.592 104.164 135.211C103.922 135.408 103.941 135.422 103.665 135.555C103.497 136.831 104.548 137.601 105.487 138.275C104.823 138.481 104.624 138.444 103.911 138.441C103.207 138.428 103.411 138.291 103.057 138.622L103.076 139.039L103.467 138.767C104.147 139.003 105.718 139.199 105.381 140.487C105.276 140.886 104.758 141.512 104.422 141.754C103.197 143.511 100.128 150.508 100.436 152.842C100.7 153.114 100.543 153.023 100.901 153.12C100.932 153.996 100.751 154.307 100.727 155.079C100.469 155.097 100.153 155.129 99.8996 155.131L100.397 154.823C100.56 154.113 100.631 154.406 100.326 153.884L99.9402 153.813C99.3186 154.241 99.4459 154.462 99.5711 155.178C98.145 156.396 96.4839 160.804 96.9956 162.577L96.842 162.477C96.2537 162.811 95.9981 163.042 95.3286 163.01L95.2139 162.897L95.0205 162.708C94.1213 161.818 93.9918 161.72 92.9088 161.03C91.5917 158.496 91.1358 158.063 91.0977 155.184L91.5297 155.12L91.7455 154.91C93.4849 153.934 94.2829 152.661 95.5662 151.33L95.727 151.166C97.7086 148.371 98.3028 147.16 99.0423 143.892C99.5314 142.608 99.9037 139.954 99.9324 138.575L100.082 138.459C100.874 138.51 101.558 138.562 102.357 138.541C103.074 137.459 101.361 136.944 102.169 135.892C102.716 135.708 102.911 135.685 103.331 135.28C103.523 134.553 103.458 134.771 103.175 133.93Z" fill="#B7B174"/>
<path d="M93.4113 155.394C93.796 154.619 94.2706 153.422 95.4361 153.43C96.397 153.436 96.6419 153.428 97.3371 154.052L97.7848 154.258C98.0607 155.134 98.1983 155.404 98.1694 156.334L97.8206 156.907C97.4877 157.473 97.5141 157.671 97.4834 158.33C96.9735 159.098 95.9864 159.71 95.0412 159.534C93.7647 158.632 95.1941 157.259 93.2186 157.198C93.0028 157.313 92.7878 157.429 92.5738 157.547C92.262 157.618 92.0672 157.641 91.7492 157.678L91.4336 157.392C91.5799 156.285 91.933 155.814 91.5295 155.118L91.7453 154.908C92.4969 155.105 92.3762 154.953 92.8115 155.441L93.4113 155.394Z" fill="#AAA959"/>
<path d="M93.4142 155.394C93.799 154.619 94.2735 153.422 95.4391 153.43C96.4 153.436 96.6448 153.428 97.34 154.052C95.6004 154.841 96.8383 156.198 94.4242 155.791C93.7804 156.126 93.2282 156.429 92.7578 155.759L92.8145 155.441L93.4142 155.394Z" fill="#828240"/>
<path d="M93.4142 155.394C94.3336 154.874 94.5349 154.181 95.2853 153.871C95.4139 154.504 95.273 154.541 95.0362 155.26L94.4242 155.792C93.7804 156.126 93.2282 156.43 92.7578 155.759L92.8145 155.441L93.4142 155.394Z" fill="#493E0C"/>
<path d="M97.7851 154.258C98.061 155.133 98.1986 155.403 98.1697 156.333L97.821 156.907C97.1219 156.246 96.8477 156.114 96.8047 155.209C97.0685 154.641 97.2558 154.587 97.7851 154.258Z" fill="#656424"/>
<path d="M91.4336 157.394C91.7988 157.053 92.1713 156.586 92.625 156.539C92.797 157.033 92.7191 156.941 92.5738 157.549C92.262 157.62 92.0672 157.642 91.7492 157.679L91.4336 157.394Z" fill="#656424"/>
<path d="M103.179 133.93C103.662 134.419 103.907 134.592 104.167 135.211C103.926 135.408 103.944 135.422 103.669 135.555C103.5 136.831 104.551 137.601 105.491 138.275C104.827 138.481 104.628 138.444 103.914 138.441C103.21 138.428 103.414 138.291 103.061 138.622L103.079 139.039C101.617 140.179 101.51 140.069 101.419 141.951L101.397 142.343C101.119 142.718 100.179 143.962 100.027 144.328C99.4124 145.805 97.5747 150.329 96.3299 151.146L95.7305 151.166C97.712 148.371 98.3063 147.16 99.0457 143.892C99.5348 142.608 99.9071 139.954 99.9359 138.575L100.086 138.459C100.878 138.51 101.562 138.562 102.36 138.541C103.078 137.459 101.365 136.944 102.173 135.892C102.72 135.708 102.914 135.685 103.334 135.28C103.526 134.553 103.461 134.771 103.179 133.93Z" fill="#828240"/>
<path d="M103.912 138.439C103.713 137.496 103.131 137.157 102.98 136.126C103.21 135.664 103.212 135.698 103.623 135.375L103.667 135.553C103.498 136.829 104.549 137.599 105.489 138.273C104.825 138.479 104.626 138.442 103.912 138.439Z" fill="#656424"/>
<path d="M103.077 139.037L103.468 138.766C104.148 139.001 105.719 139.197 105.382 140.486C105.277 140.885 104.759 141.51 104.423 141.752C104.483 140.996 104.603 141.053 104.295 140.513C103.749 140.29 103.184 140.363 102.586 140.381C102.268 140.927 101.757 141.872 101.395 142.342L101.417 141.949C101.507 140.067 101.615 140.177 103.077 139.037Z" fill="#969A4E"/>
<path d="M95.3281 163.008C95.6035 162.525 95.8922 161.856 96.353 161.625C96.7912 161.888 96.6521 161.816 96.8416 162.475C96.2533 162.809 95.9976 163.04 95.3281 163.008Z" fill="#493E0C"/>
<path d="M110.965 187.575C111.567 187.389 112.37 187.643 113.344 187.435C115.775 185.769 117.721 177.021 117.049 174.443C115.786 173.017 116.277 172.809 115.602 171.326C115.366 170.808 113.195 169.725 113.05 168.684L117.494 172.56C117.371 176.12 117.224 189.677 110.965 187.575Z" fill="#B7B174"/>
<path d="M100.728 155.078C100.94 155.74 100.978 155.787 100.907 156.461L100.642 156.798C100.046 156.84 100.313 156.916 99.8221 156.533C99.563 155.92 99.552 155.705 99.9011 155.13C100.154 155.128 100.47 155.096 100.728 155.078Z" fill="#B19A5F"/>
<path d="M101.907 158.898L102.305 158.942C102.942 159.532 103.789 160.365 103.498 161.289C102.098 161.804 102.247 161.791 102.168 163.188L101.909 163.408C101.421 163.227 101.492 163.106 101.149 162.536C101.349 161.843 101.22 162.114 102.06 161.631C101.441 161.257 101.363 161.241 100.657 161.039C100.408 161.186 100.423 161.203 100.275 161.444C100.226 160.938 101.532 159.37 101.907 158.898Z" fill="#B7B174"/>
<path d="M101.606 165.703C102.305 166.13 102.511 166.28 102.402 167.078C102.031 167.59 101.894 167.624 101.351 167.922C100.943 167.745 100.68 167.685 100.43 167.323C100.6 166.795 101.186 166.509 101.606 165.703Z" fill="#C8C6A3"/>
<path d="M115.74 109.523C116.523 109.939 117.598 112.652 117.654 113.518C117.814 115.986 119.043 118.263 119.271 120.573C119.29 121.954 119.366 123.694 119.121 125.023C118.964 125.002 118.521 124.682 118.206 124.576L117.772 124.603C117.833 125.748 118.161 126.302 118.387 127.351L119.022 127.856L119.098 128.95C119.137 128.008 119.029 127.648 119.615 127.011L119.883 127.049C120.642 128.158 120.19 129.449 119.817 130.602C119.179 132.571 115.84 133.369 115.07 134.721L115.104 134.986C114.296 135.448 112.957 135.246 111.985 135.798L110.852 136.819L110.818 136.989C110.348 137.14 109.924 137.313 109.434 137.341L108.804 137.578C108.451 137.748 108.163 137.856 107.869 138.121L105.49 138.273C104.55 137.599 103.499 136.829 103.668 135.553C103.943 135.42 103.925 135.406 104.166 135.209C103.906 134.59 103.661 134.417 103.178 133.928C103.46 134.769 103.525 134.551 103.333 135.278C102.913 135.683 102.719 135.706 102.172 135.89C101.364 136.942 103.077 137.457 102.359 138.539C101.561 138.56 100.876 138.509 100.085 138.457L100.195 138.355C101.737 135.803 97.774 134.456 95.9806 133.631C95.2943 132.035 94.7427 132.036 94.2109 131.014L94.4779 130.961C95.2292 131.153 96.6588 131.571 97.3716 131.41C97.1359 131.18 95.9832 131.066 95.5576 130.977C96.6504 130.995 97.3443 131.004 97.9988 130.077L97.9775 129.61C97.5152 129.127 97.3451 129.03 96.7811 128.649C97.5347 127.607 98.5352 126.642 99.9159 127.385C101.199 127.236 101.707 125.488 103.108 125.579C103.52 125.91 103.566 125.965 104.055 126.204C104.647 126.12 104.835 125.907 105.312 125.546L105.626 125.333C105.563 125.277 105.061 124.815 105.061 124.815C104.585 122.729 103.409 117.675 102.906 115.925L103.101 115.881C103.288 116.432 103.291 116.752 103.661 117.086C106.07 117.125 105.278 118.42 106.562 118.964C106.64 118.158 107.385 118.472 107.41 116.317C107.47 117.112 107.446 118.225 107.842 118.85C107.974 118.523 107.937 118.593 107.974 118.228C109.042 117.459 111.13 118.667 113.505 117.444L113.787 117.247C114.29 117.262 114.543 117.312 115.007 117.112C115.291 116.537 115.045 116.057 114.884 115.32L115.113 115.102C115.018 113.6 114.614 110.772 115.669 109.664L115.74 109.523Z" fill="#C2C27D"/>
<path d="M119.097 128.95C119.135 128.008 119.027 127.648 119.614 127.012L119.882 127.049C120.641 128.159 120.189 129.449 119.815 130.602C119.177 132.571 115.839 133.369 115.068 134.721L115.102 134.986C114.295 135.448 112.956 135.246 111.983 135.799L110.851 136.819L110.817 136.989C110.347 137.141 109.922 137.314 109.433 137.341L108.803 137.578C108.449 137.748 108.162 137.856 107.868 138.121L105.488 138.273C104.549 137.599 103.498 136.829 103.666 135.553C103.942 135.421 103.923 135.406 104.165 135.209C104.557 134.776 104.813 134.631 105.286 134.306C106.021 133.959 106.269 133.88 107.058 133.671C108.506 133.259 110.018 132.541 111.536 132.048C112.923 131.641 114.039 130.678 115.527 130.045C116.075 129.696 116.338 129.528 116.923 129.258C117.37 129.976 117.376 130.202 118.229 130.06C118.735 129.619 118.754 129.546 119.097 128.95Z" fill="#BCBE80"/>
<path d="M108.422 137.242C108.256 137.082 108.002 136.757 107.844 136.57C108.466 135.828 110.712 136.167 111.982 135.801L110.85 136.822L110.816 136.991C110.346 137.143 109.921 137.316 109.432 137.343L108.422 137.242Z" fill="#CBC56E"/>
<path d="M104.165 135.211C104.557 134.779 104.813 134.633 105.286 134.309C104.195 135.864 103.981 136.586 105.478 137.915C106.724 137.933 107.477 138.132 108.423 137.242L109.433 137.344L108.803 137.581C108.449 137.751 108.162 137.859 107.868 138.124L105.488 138.276C104.549 137.602 103.498 136.832 103.666 135.556C103.942 135.423 103.923 135.409 104.165 135.211Z" fill="#969A4E"/>
<path d="M101.449 131.882C101.479 128.482 100.685 127.217 104.894 127.602C105.179 127.834 105.041 127.734 105.463 127.813C103.828 129.369 103.655 131.076 105.821 132.211C106.425 131.832 107.144 131.446 107.772 131.087C107.924 132.265 107.06 132.358 107.06 133.672C106.27 133.88 106.023 133.959 105.287 134.306C104.814 134.631 104.558 134.776 104.166 135.209C103.906 134.591 103.661 134.418 103.178 133.928C103.46 134.77 103.525 134.552 103.333 135.279C102.913 135.684 102.719 135.707 102.172 135.891C101.364 136.942 103.077 137.458 102.359 138.54C101.561 138.561 100.876 138.509 100.085 138.457L100.195 138.356C101.737 135.804 97.774 134.457 95.9806 133.631C95.2943 132.035 94.7427 132.037 94.2109 131.015L94.4779 130.961C95.1789 131.93 97.8386 131.793 98.9409 132.056C99.792 132.26 100.611 132.06 101.449 131.882Z" fill="#969A4E"/>
<path d="M107.77 131.086C107.921 132.263 107.057 132.357 107.057 133.67C106.268 133.879 106.02 133.958 105.285 134.305C104.812 134.63 104.556 134.775 104.164 135.208C103.903 134.589 103.659 134.417 103.175 133.927C102.761 133.292 102.339 132.903 102.576 132.16L102.895 132.212C103.528 132.716 103.728 133.381 104.068 134.14C104.762 133.205 104.964 132.985 105.818 132.21C106.423 131.831 107.141 131.445 107.77 131.086Z" fill="#656424"/>
<path d="M115.739 109.523C116.523 109.939 117.597 112.652 117.653 113.518C117.813 115.986 119.042 118.263 119.27 120.573C119.289 121.954 119.365 123.694 119.12 125.023C118.963 125.002 118.521 124.682 118.206 124.576L117.771 124.603C117.832 125.748 118.16 126.302 118.386 127.351L119.021 127.856L119.097 128.95C118.755 129.546 118.735 129.618 118.23 130.059C117.377 130.201 117.371 129.975 116.923 129.258L116.661 128.074L116.582 128.029C116.287 126.433 115.935 124.69 115.789 123.085C115.581 120.775 115.957 117.243 115.112 115.102C115.017 113.6 114.613 110.772 115.668 109.664L115.739 109.523Z" fill="#7A3C1D"/>
<path d="M115.739 109.523C116.522 109.939 117.597 112.652 117.653 113.518C117.813 115.986 119.042 118.263 119.27 120.573C119.289 121.954 119.365 123.694 119.12 125.023C118.963 125.002 118.52 124.682 118.205 124.576L117.771 124.603C117.773 124.288 117.702 123.689 117.672 123.351C116.823 121.957 116.863 115.55 116.673 113.684C116.508 112.084 116.175 111.198 115.668 109.664L115.739 109.523Z" fill="#A1542B"/>
<path d="M117.674 123.354C117.565 122.185 116.928 118.581 117.734 117.867L117.96 117.958C118.703 119.699 118.375 122.664 118.207 124.578L117.773 124.606C117.774 124.291 117.703 123.692 117.674 123.354Z" fill="#C26741"/>
<path d="M118.385 127.352L119.02 127.857L119.096 128.951C118.753 129.547 118.734 129.619 118.229 130.06C117.376 130.202 117.369 129.976 116.922 129.259L116.66 128.075C117.141 128.708 117.742 128.926 118.432 128.516C118.631 127.886 118.573 128.088 118.385 127.352Z" fill="#6B5026"/>
<path d="M105.624 125.334C107.579 125.157 109.344 125.153 111.29 124.822C112.277 124.654 114.169 123.848 114.821 123.805L115.002 123.974C114.02 125.333 107.834 126.426 105.462 127.814C105.04 127.735 105.177 127.835 104.893 127.602C100.683 127.218 101.478 128.482 101.448 131.882C100.609 132.06 99.7906 132.26 98.9396 132.057C97.8372 131.794 95.1776 131.931 94.4766 130.962C95.2278 131.154 96.6574 131.572 97.3702 131.411C97.1346 131.181 95.9818 131.067 95.5562 130.978C96.649 130.996 97.3429 131.005 97.9974 130.078L97.9761 129.611C97.5138 129.128 97.3437 129.032 96.7797 128.65C97.5334 127.609 98.5338 126.643 99.9145 127.386C101.198 127.237 101.706 125.489 103.106 125.58C103.519 125.911 103.564 125.966 104.054 126.205C104.646 126.121 104.834 125.908 105.31 125.547L105.624 125.334Z" fill="#AAA959"/>
<path d="M107.771 131.087C108.393 130.762 110.176 130.118 110.93 129.82C110.866 131.04 111.332 131.011 111.536 132.048C110.018 132.54 108.506 133.259 107.059 133.671C107.059 132.358 107.923 132.264 107.771 131.087Z" fill="#828240"/>
<path d="M110.932 129.819C112.458 129.619 113.203 129.324 114.358 128.34C114.718 128.878 115.138 129.546 115.529 130.044C114.041 130.677 112.925 131.64 111.538 132.047C111.334 131.01 110.867 131.039 110.932 129.819Z" fill="#969A4E"/>
<path d="M116.581 128.031L116.66 128.076L116.922 129.26C116.337 129.53 116.074 129.698 115.527 130.047C115.136 129.55 114.716 128.881 114.355 128.343C115.174 127.984 115.381 128.118 116.268 128.291L116.581 128.031Z" fill="#AAA959"/>
<path d="M131.316 90.0586C132.469 90.2327 132.771 91.9604 134.103 92.2954C134.737 92.525 134.819 92.5371 135.526 92.2857C135.979 92.8124 135.916 92.9376 136.684 92.9014L136.822 92.6688C137.114 92.3215 137.505 91.595 137.747 91.18L137.885 91.1891C137.931 92.1136 136.919 92.9083 137.676 93.5803C138.581 94.3832 140.408 94.8545 139.353 96.5863C138.86 97.6779 137.242 99.6126 136.271 100.286C135.744 100 135.993 100.008 135.507 100.15C135.336 100.388 135.06 100.743 134.917 100.982C134.078 101.685 132.493 102.903 132.039 103.802C132.041 105.235 133.433 104.5 131.668 107.343L131.551 107.371L131.38 106.999C129.946 111.593 126.898 116.054 125.204 120.631C125.105 120.898 124.575 121.441 124.318 121.61C124.301 121.132 124.33 120.833 124.37 120.365C123.797 120.657 121.629 124.214 121.13 124.986L121.235 125.136L121.466 125.098C122.009 125.014 122.043 124.939 122.503 125.177C123.067 124.671 122.899 124.12 123.47 123.797C123.924 123.935 123.756 123.794 124.026 124.17C123.963 126.915 124.049 126.395 124.572 128.822C124.121 129.591 123.884 129.982 124.126 130.875C124.696 131.665 124.771 131.348 125.426 131.818L124.845 131.904C124.126 133.001 122.425 133.29 121.148 133.731L121.303 133.941L121.227 133.884L121.329 133.92C120.3 134.37 119.011 135.117 117.954 134.933C117.597 134.619 117.68 134.193 117.706 133.768L117.513 133.532C116.741 133.602 115.753 134.303 115.066 134.723C115.837 133.371 119.176 132.573 119.814 130.604C120.187 129.451 120.639 128.16 119.88 127.05L119.612 127.013C119.025 127.65 119.134 128.01 119.095 128.951L119.019 127.858L118.384 127.352C118.158 126.304 117.83 125.75 117.769 124.605L118.203 124.577C118.518 124.684 118.961 125.004 119.117 125.025C119.363 123.696 119.287 121.956 119.268 120.575C119.759 120.777 119.516 120.774 119.999 120.704C120.702 119.729 124.158 113.995 124.317 113.08C124.577 109.666 125.934 109.369 125.347 105.429C125.515 104.071 125.938 102.596 126.037 101.244C126.232 98.5934 127.413 96.622 127.126 93.9542C125.286 90.4619 128.912 90.5672 131.316 90.0586Z" fill="#CBC56E"/>
<path d="M137.749 91.1797L137.886 91.1887C137.933 92.1133 136.92 92.908 137.678 93.5799C138.583 94.3828 140.409 94.8541 139.355 96.586C138.734 94.9029 138.017 96.5316 136.673 96.0161C136.439 95.5825 136.375 95.1085 136.27 94.6219C136.825 94.0543 136.932 94.1281 137.088 93.476L136.686 92.901L136.824 92.6684C137.116 92.3212 137.507 91.5946 137.749 91.1797Z" fill="#C8C488"/>
<path d="M136.27 94.6211C136.846 94.7434 137.286 94.7571 137.688 95.1646C137.589 95.7109 137.172 95.8209 136.673 96.0154C136.439 95.5817 136.375 95.1078 136.27 94.6211Z" fill="#E5DDB2"/>
<path d="M118.204 124.578C118.519 124.685 118.962 125.005 119.118 125.026C119.06 125.804 118.939 127.133 119.02 127.859L118.385 127.353C118.159 126.305 117.831 125.751 117.77 124.606L118.204 124.578Z" fill="#7A3C1D"/>
<path d="M130.771 95.1522C130.777 94.3778 130.659 94.5289 131.032 94.0059C131.641 93.8615 131.761 94.0301 132.051 94.609L132.061 95.4571C131.494 95.7723 131.774 95.7282 131.213 95.7225L130.771 95.1522Z" fill="#E5DDB2"/>
<path d="M121.33 133.919C122.239 133.586 123.056 133.233 124.017 133.168L124.176 133.21C125.901 133.643 127.527 133.137 128.272 135.001C126.999 135.94 126.618 136.314 125.053 136.652C123.769 136.744 121.121 136.773 120.05 137.427C118.206 138.553 119.585 140.467 120.378 141.748C118.971 141.624 117.783 141.352 116.553 142.12C115.663 143.761 118.865 145.77 119.659 146.676C120.465 146.986 120.629 146.993 121.034 147.773C121.553 148.64 121.864 149.121 121.729 150.134C121.38 150.63 121.603 150.467 121.061 150.669L120.433 150.472L120.642 151.417L120.128 150.75C118.338 149.139 118.196 150.906 115.641 148.248H113.055C110.682 145.909 111.109 144.857 108.001 146.871C107.35 147.784 106.63 149.136 106.103 149.822L106.121 149.254C104.937 149.667 103.082 150.632 102.453 151.741L102.478 151.956C102.802 151.871 103.041 151.777 103.371 151.77C103.074 152.344 101.718 152.471 100.901 153.119C100.544 153.022 100.7 153.113 100.436 152.841C100.128 150.507 103.197 143.51 104.422 141.753C104.758 141.511 105.276 140.885 105.381 140.487C105.719 139.198 104.147 139.002 103.467 138.766L103.076 139.038L103.057 138.621C103.411 138.29 103.207 138.427 103.911 138.44C104.625 138.443 104.823 138.48 105.488 138.274L107.867 138.122C108.161 137.857 108.448 137.749 108.802 137.579L109.432 137.342C109.921 137.314 110.346 137.141 110.816 136.99L110.85 136.82L111.982 135.799C112.955 135.247 114.294 135.449 115.101 134.987L115.067 134.722C115.754 134.302 116.742 133.601 117.514 133.531L117.707 133.767C117.681 134.192 117.598 134.618 117.955 134.932C119.012 135.116 120.301 134.37 121.33 133.919Z" fill="#A2A357"/>
<path d="M110.678 144.848C114.584 144.762 115.104 145.353 117.908 147.918C117.989 148.548 117.955 148.992 118.389 149.425C119.384 149.865 119.623 149.76 120.432 150.473L120.641 151.418L120.127 150.751C118.337 149.141 118.195 150.908 115.64 148.249H113.054C110.681 145.91 111.108 144.859 108 146.873C108.244 146.49 108.614 146.164 108.938 145.841C109.534 145.528 110.098 145.19 110.678 144.848Z" fill="#C8C6A3"/>
<path d="M108.941 145.839C107.413 145.203 104.898 141.512 106.464 140.488C107.431 140.637 109.474 143.192 110.335 143.921C110.76 144.281 110.707 144.446 110.681 144.846C110.101 145.189 109.537 145.526 108.941 145.839Z" fill="#7D7F3D"/>
<path d="M110.85 136.82C111.962 136.88 112.999 137.384 114.034 137.815C113.449 138.289 113.016 138.558 112.645 139.209L112.569 139.978C112.508 139.663 112.454 139.379 112.408 139.062C110.358 140.017 110.833 138.356 108.843 138.452C108.384 138.718 108.384 138.678 108.151 139.145L107.945 139.169C108.113 138.465 108.135 138.801 107.867 138.122C108.161 137.857 108.449 137.749 108.802 137.579L109.432 137.342C109.922 137.315 110.347 137.142 110.817 136.99L110.85 136.82Z" fill="#828240"/>
<path d="M110.819 136.988L111.253 137.138C111.408 137.663 111.405 137.397 111.192 137.961C110.728 138.289 110.764 138.268 110.2 138.353C109.64 138.184 109.094 138.075 108.805 137.578L109.435 137.34C109.924 137.313 110.349 137.14 110.819 136.988Z" fill="#70732B"/>
<path d="M105.491 138.273L107.87 138.121C108.138 138.799 108.115 138.464 107.947 139.168C107.459 139.173 104.295 138.623 103.914 138.439C104.628 138.443 104.826 138.48 105.491 138.273Z" fill="#70732B"/>
<path d="M119.661 146.676C120.467 146.986 120.63 146.992 121.035 147.773L120.822 148.228C120.253 148.528 120.555 148.451 119.874 148.415C119.305 148.049 119.517 148.285 119.215 147.68C119.283 147.026 119.229 147.257 119.661 146.676Z" fill="#AAA959"/>
<path d="M120.378 141.748C119.585 140.467 118.206 138.553 120.05 137.428C121.121 136.773 123.768 136.744 125.053 136.652L124.245 137.168C123.496 137.836 123.894 140.083 123.877 141.143C125.668 142.919 127.343 145.67 129.296 147.366C130.271 148.214 131.25 147.08 131.772 148.306C131.52 149.144 129.398 149.45 131.026 150.76L130.651 150.945L130.782 151.118C131.265 151.742 131.402 151.732 131.728 152.465C132.056 152.882 132.097 152.872 132.72 152.853L132.34 153.271C132.559 154.232 134.332 154.908 135.101 155.596C135.104 156.125 135.077 156.313 135.253 156.825C135.613 157.056 135.589 157.067 136.005 157.128C136.091 158.585 135.917 159.584 134.46 160.186L133.973 160.147C133.581 160.388 133.565 160.456 133.122 160.462C131.896 159.932 130.433 156.704 129.79 155.562C129.204 154.52 127.303 156.56 127.097 157.188C127.765 157.624 128.606 158.346 128.002 159.201C127.002 159.417 126.815 159.159 126.154 158.501L125.962 158.309L125.515 158.366C125.183 158.056 125.193 158.086 125.087 157.649C125.464 156.568 125.348 156.71 124.51 156.011C125.245 153.312 123.872 153.654 122.119 152.856L122.061 152.569L122.282 152.385C122.782 152.383 122.888 152.393 123.392 152.297C121.955 151.611 122.058 152.882 121.465 153.184C121.141 152.809 120.866 151.921 120.641 151.417L120.433 150.472L121.061 150.669C121.602 150.467 121.38 150.63 121.728 150.135C121.864 149.122 121.552 148.641 121.034 147.773C120.629 146.993 120.465 146.987 119.659 146.676C118.865 145.77 115.663 143.761 116.553 142.12C117.782 141.353 118.971 141.624 120.378 141.748Z" fill="#C2C191"/>
<path d="M131.731 152.465C132.059 152.882 132.1 152.872 132.723 152.853L132.344 153.271C132.562 154.232 134.335 154.907 135.104 155.595C135.107 156.125 135.08 156.313 135.256 156.825C135.616 157.056 135.592 157.067 136.008 157.128C136.094 158.585 135.92 159.583 134.463 160.186L133.977 160.147L133.875 159.758C133.602 159.781 133.503 159.906 133.266 160.058C131.844 159.679 132.889 158.903 131.152 157.587L131.429 157.123C131.436 156.35 130.426 154.088 130.034 153.316C129.775 152.921 129.73 152.916 129.645 152.462C130.063 152.281 130.489 152.822 131.31 153.126L131.584 153L131.731 152.465Z" fill="#CBC56E"/>
<path d="M128.014 152.419C127.326 151.208 125.448 150.735 126.372 149.076C127.958 148.935 128.462 151.491 130.652 150.945L130.783 151.118C131.266 151.741 131.403 151.731 131.729 152.465L131.582 152.999L131.308 153.125C130.487 152.822 130.061 152.28 129.642 152.461C129.728 152.915 129.773 152.92 130.032 153.316C129.26 152.854 129.184 152.227 128.341 152.101L128.014 152.419Z" fill="#B7B174"/>
<path d="M128.016 152.42L128.342 152.102C129.185 152.228 129.261 152.854 130.033 153.316C130.426 154.088 131.435 156.35 131.429 157.123L131.151 157.587C129.959 156.702 130.85 156.589 130.288 155.19C130.156 155.143 129.389 154.864 129.379 154.846C129.03 154.155 128.377 153.077 128.016 152.42Z" fill="#B19A5F"/>
<path d="M131.193 147.852C131.437 148.189 131.351 148.058 131.412 148.523C131.005 148.994 131.127 148.848 130.405 149.032C130.064 148.532 130.135 148.792 130.098 148.254C130.49 147.905 130.603 147.982 131.193 147.852Z" fill="#C8C6A3"/>
<path d="M94.2977 93.0916C97.033 92.3157 96.6457 93.5693 98.2446 93.6896C98.2627 93.3136 98.2858 92.9379 98.3141 92.5625L98.4339 92.6622C98.4662 93.6911 98.4859 94.7287 98.5625 95.7543C98.5207 97.3755 99.3633 99.7534 99.6046 101.241C99.8716 102.885 100.548 107.784 100.251 109.185C100.733 108.749 100.472 108.825 101.011 108.815C101.363 109.194 101.349 109.379 101.442 109.886C101.67 111.356 102.079 114.809 102.905 115.925C103.407 117.676 104.584 122.73 105.059 124.815C105.059 124.815 105.561 125.277 105.624 125.334L105.31 125.547C105.037 125.566 104.228 125.639 104.054 125.527C102.893 124.784 101.808 120.637 101.369 119.336C100.818 119.071 100.455 118.627 99.9563 118.248L99.6424 118.34L99.425 119.031L99.4328 117.892L99.2964 116.463C99.1714 115.788 98.4711 116.116 98.4218 115.471C98.3447 114.462 98.3422 112.83 98.2708 111.871C98.1294 109.971 96.4448 104.741 95.5887 103.195L94.9982 103.073C94.4217 101.454 93.7076 100.033 92.7865 98.5776C91.9574 97.2694 89.6995 95.5066 90.0047 93.8663L90.385 93.8116C91.9194 94.4394 91.6637 94.1679 92.9769 94.4131L93.1269 94.4389C93.292 93.9183 93.3786 93.7374 93.6049 93.2543C94.019 92.9619 93.7955 93.0148 94.2977 93.0916Z" fill="#D5CB9B"/>
<path d="M94.2969 93.0916C97.0322 92.3157 96.6449 93.5693 98.2438 93.6896C98.2619 93.3136 98.285 92.9379 98.3133 92.5625L98.4331 92.6622C98.4654 93.6911 98.4851 94.7287 98.5617 95.7543C98.5199 97.3755 99.3625 99.7534 99.6038 101.241C99.8708 102.885 100.547 107.784 100.25 109.185L100.182 109.443C98.3487 109.104 100.437 104.316 96.3942 101.968C96.5388 101.692 97.1408 100.605 96.9914 100.353C96.6315 99.7421 95.2631 98.0736 95.1613 97.4752C95.3653 96.9708 95.4689 96.8115 95.4634 96.2594C94.5203 94.9252 94.5581 94.702 94.2969 93.0916Z" fill="#CBC56E"/>
<path d="M100.25 109.186C100.732 108.75 100.471 108.826 101.01 108.816C101.363 109.196 101.348 109.38 101.442 109.887C101.669 111.357 102.078 114.81 102.904 115.927C103.406 117.677 104.583 122.732 105.059 124.817C105.059 124.817 105.56 125.279 105.623 125.335L105.309 125.548C105.037 125.568 104.227 125.641 104.053 125.529C102.892 124.786 101.807 120.638 101.368 119.338L100.874 117.792C100.838 115.952 100.714 113.484 100.042 111.806C99.6388 110.69 99.7538 110.574 100.182 109.445L100.25 109.186Z" fill="#E5DDB2"/>
<path d="M90.3862 93.8125C91.9207 94.4403 91.665 94.1688 92.9781 94.414C93.0088 95.1604 93.1219 94.859 92.7646 95.391C92.1098 95.7438 91.7335 95.6831 90.9835 95.774C90.4397 95.1337 90.174 94.9173 90.3597 94.0688L90.3862 93.8125Z" fill="#C8C6A3"/>
<path d="M90.3597 94.0703C91.0345 94.4362 90.9793 94.2703 91.2566 94.8346C91.1529 95.335 91.1878 95.3127 90.9835 95.7755C90.4397 95.1352 90.174 94.9188 90.3597 94.0703Z" fill="#B7B174"/>
<path d="M99.4335 117.892C99.5198 117.317 99.5516 116.664 99.8737 116.207C100.391 116.587 100.391 117.113 100.876 117.79L101.37 119.336C100.818 119.071 100.455 118.627 99.957 118.247L99.6432 118.339L99.4258 119.03L99.4335 117.892Z" fill="#C8C488"/>
<path d="M98.564 95.7539C98.7577 96.2002 98.9114 96.5783 99.1421 97.0091C99.7601 97.2422 99.794 97.2283 100.468 97.1843C100.289 96.9224 100.285 96.9175 100.064 96.6683C100.494 96.7807 100.542 96.977 100.904 97.3714L100.935 97.5697C100.439 97.7317 99.9873 97.8713 99.5044 98.0764C100.293 98.2945 100.754 97.655 101.404 97.9408C101.468 98.3688 101.559 98.6256 101.368 99.0084C100.879 98.8776 100.068 98.5077 99.575 98.301C99.7179 98.6434 100.651 99.0666 101.102 99.4833C101.828 99.388 102.117 99.2458 102.813 98.9826C102.974 99.2572 102.963 99.2814 103.213 99.4784C103.153 98.6111 102 97.8018 102.608 96.707C104.358 97.661 104.374 100.22 105.453 100.84L106.063 99.9242C106.1 101.89 105.785 107.71 104.499 108.997L104.503 109.205C105.598 108.845 106.805 108.131 107.934 108.978L108.313 109.892L108.081 110.501C108.4 111.68 106.826 112.935 107.888 114.511C108.084 114.802 107.727 116.836 108.076 117.289C110.012 118.002 112.056 117.16 113.504 117.445C111.13 118.667 109.042 117.459 107.974 118.228C107.937 118.593 107.974 118.523 107.841 118.85C107.446 118.225 107.47 117.112 107.41 116.317C107.384 118.472 106.64 118.158 106.562 118.964C105.277 118.42 106.07 117.125 103.661 117.086C103.29 116.752 103.288 116.432 103.101 115.881L102.906 115.925C102.081 114.808 101.671 111.355 101.444 109.885C101.351 109.378 101.365 109.194 101.013 108.814C100.473 108.824 100.734 108.748 100.252 109.184C100.549 107.784 99.8731 102.885 99.6061 101.241C99.3648 99.753 98.5222 97.3751 98.564 95.7539Z" fill="#D5CB9B"/>
<path d="M104.502 109.207C105.597 108.847 106.804 108.133 107.933 108.979L108.313 109.894L108.08 110.503C107.427 111.756 106.99 114.751 105.833 115.35L105.497 115.23C104.743 114.239 104.5 111.842 104.391 110.58L104.502 109.207Z" fill="#602C19"/>
<path d="M106.061 99.9258C106.098 101.892 105.783 107.711 104.497 108.998L104.501 109.207L104.389 110.58C103.804 107.857 104.228 103.431 105.451 100.842L106.061 99.9258Z" fill="#A1542B"/>
<path d="M124.575 128.82C124.052 126.393 123.966 126.913 124.029 124.169C123.759 123.792 123.927 123.933 123.473 123.795C122.901 124.118 123.069 124.669 122.506 125.175C122.045 124.937 122.011 125.012 121.469 125.096L121.238 125.134L121.133 124.984C121.632 124.212 123.8 120.655 124.373 120.363C124.333 120.831 124.303 121.13 124.321 121.608C124.578 121.439 125.108 120.896 125.206 120.63C126.901 116.052 129.949 111.591 131.383 106.997L131.554 107.369L131.67 107.341C133.436 104.498 132.044 105.233 132.042 103.801C132.496 102.901 134.08 101.683 134.92 100.98C134.24 102.662 133.98 103.003 132.72 104.319C132.641 107.982 126.012 118.394 124.547 122.586C123.835 124.626 125.34 127.77 124.693 129.439C124.373 130.15 124.438 130.678 124.954 131.256C126.511 131.749 126.458 129.848 128.43 129.836C129.501 127.929 130.969 128.502 132.893 127.85C135.371 127.006 137.925 126.234 140.165 124.834C140.633 124.542 140.57 124.136 140.63 123.655L140.796 124.393L140.947 124.094C141.699 123.992 142.329 123.122 143.185 122.552C143.358 122.917 143.402 123.298 143.487 123.703L143.857 122.778C144.255 126.063 141.349 126.133 147.493 127.244C146.836 127.304 146.178 127.368 145.521 127.438C146.148 127.512 146.477 127.523 147.11 127.523L147.637 127.514L148.097 127.9L147.903 128.16C144.849 128.436 137.579 129.991 134.752 131.297C133.082 132.067 131.268 133.629 129.089 134.433L128.274 135C127.529 133.136 125.903 133.642 124.177 133.209L124.019 133.167C123.058 133.232 122.241 133.585 121.331 133.918L121.23 133.882L121.306 133.939L121.151 133.729C122.428 133.288 124.129 132.999 124.848 131.902L125.429 131.817C124.774 131.347 124.699 131.663 124.129 130.873C123.887 129.98 124.124 129.589 124.575 128.82Z" fill="#C8C488"/>
<path d="M140.797 124.396L140.947 124.097C141.7 123.995 142.33 123.125 143.186 122.555C143.359 122.92 143.402 123.301 143.488 123.706C143.347 124.283 143.239 124.716 143.053 125.276C142.21 125.297 141.853 125.328 141.025 125.473L140.797 124.396Z" fill="#5A361E"/>
<path d="M124.02 133.169C125.719 133.137 127.434 132.707 128.794 133.357C129.095 133.718 129.056 133.961 129.09 134.436L128.274 135.002C127.529 133.138 125.903 133.644 124.178 133.211L124.02 133.169Z" fill="#AAA959"/>
<path d="M141.023 125.47C141.852 125.325 142.209 125.294 143.052 125.273C142.739 125.813 142.558 126.291 142.023 126.566C141.387 126.438 141.274 126.041 141.023 125.47Z" fill="#6B5026"/>
<path d="M147.11 127.525L147.637 127.516L148.097 127.902L147.903 128.162C147.235 128.154 146.253 128.217 145.715 127.873C146.098 127.579 146.606 127.588 147.11 127.525Z" fill="#B19A5F"/>
<path d="M106.064 99.9246C106.744 98.7019 108.886 93.4678 110.533 94.1229C111.268 95.2282 110.753 97.87 110.585 99.2769C110.467 101.478 110.456 103.182 109.868 105.323C109.519 106.594 108.742 108.527 108.54 109.714L108.314 109.892L107.934 108.978C106.805 108.132 105.599 108.845 104.504 109.206L104.5 108.997C105.786 107.71 106.101 101.89 106.064 99.9246Z" fill="#632F1D"/>
<path d="M110.582 99.2773C110.464 101.479 110.453 103.183 109.865 105.323C109.516 106.594 108.739 108.528 108.537 109.715C108.435 108.08 108.292 107.969 106.78 107.423C106.116 106.09 107.187 102.975 107.817 101.666C107.948 101.552 108.006 101.484 108.149 101.424C109.417 100.893 109.631 99.8734 110.582 99.2773Z" fill="#9C472A"/>
<path d="M107.817 101.668L108.369 101.76C109.209 103.043 108.799 106.224 108.012 107.502C107.394 107.552 107.366 107.528 106.78 107.425C106.116 106.092 107.187 102.976 107.817 101.668Z" fill="#C26741"/>
<path d="M90.6406 126.804L91.195 126.713L91.2578 126.552L91.164 126.44C91.6251 125.536 91.7199 125.386 92.3696 124.648L92.5217 124.476C92.021 124.397 91.6256 124.305 91.137 124.189C92.4954 123.525 97.4893 124.638 98.7733 123.638C99.854 122.798 98.974 118.203 99.298 116.465L99.4344 117.894L99.4266 119.033L99.644 118.342L99.9579 118.25C100.456 118.629 100.819 119.073 101.371 119.338C101.809 120.639 102.894 124.786 104.056 125.529C104.229 125.641 105.039 125.568 105.312 125.549C104.835 125.909 104.647 126.122 104.055 126.206C103.566 125.967 103.52 125.912 103.108 125.581C101.707 125.491 101.199 127.238 99.9159 127.387C98.5352 126.644 97.5347 127.61 96.781 128.652C97.3451 129.033 97.5152 129.13 97.9774 129.613L97.9988 130.08C96.9778 128.865 95.8507 128.581 94.4456 127.841C94.0568 127.563 93.8769 127.182 93.6209 126.77C92.6274 126.772 91.6338 126.783 90.6406 126.804Z" fill="#C2C391"/>
<path d="M99.4244 119.033L99.6418 118.342L99.9556 118.25C100.454 118.63 100.817 119.074 101.369 119.339C101.807 120.639 102.892 124.787 104.053 125.53C104.227 125.641 105.037 125.569 105.309 125.549C104.833 125.909 104.645 126.123 104.053 126.207C103.563 125.968 103.518 125.913 103.105 125.581C101.705 125.491 101.197 127.239 99.9136 127.387C99.9855 127.022 100.02 126.198 99.8216 125.898L99.2465 126.005L99.2422 125.885L100.265 125.506C100.423 124.903 99.7684 123.172 99.6589 122.24C99.5215 121.07 99.4678 120.217 99.4244 119.033Z" fill="#B7B174"/>
<path d="M115.738 109.525L116.166 109.346C117.111 109.89 116.767 110.937 117.478 111.25C119.473 109.997 119.193 107.588 120.085 105.708C120.279 105.3 122.324 105.458 122.546 105.209C122.227 104.736 121.411 103.668 121.358 103.179L121.432 102.941C121.929 103.583 122.02 103.922 122.617 104.633C122.844 108.777 123.532 113.796 120.476 117.102C120.159 117.443 119.318 118.152 119.384 118.485C119.52 119.155 119.368 119.57 119.778 120.114C120.697 119.698 123.026 114.388 124.318 113.08C124.16 113.994 120.703 119.728 120.001 120.704C119.518 120.773 119.76 120.777 119.269 120.575C119.041 118.265 117.812 115.988 117.652 113.519C117.596 112.654 116.522 109.94 115.738 109.525Z" fill="#C8C488"/>
<path d="M94.4432 127.84C95.8482 128.58 96.9753 128.864 97.9963 130.079C97.3418 131.006 96.6479 130.996 95.5551 130.978C95.9807 131.067 97.1335 131.182 97.3691 131.411C96.6563 131.573 95.2267 131.154 94.4755 130.962L94.2085 131.015C94.7402 132.038 95.2918 132.036 95.9781 133.632C97.7715 134.457 101.734 135.804 100.192 138.357L100.082 138.458L99.9323 138.575C97.3565 138.26 97.5365 136.829 95.3197 135.015L95.1136 134.848C94.3043 134.591 93.4818 134.193 92.7012 133.844C92.6036 133.713 92.7015 132.469 92.3736 132.322C91.4129 131.891 90.2714 131.889 89.592 131.086C89.4664 130.534 89.2738 129.444 89.4494 128.912C90.9856 128.032 94.6124 130.516 95.8045 130.038L95.8402 129.671C95.4719 128.688 95.1608 128.562 94.4432 127.84Z" fill="#C8C488"/>
<path d="M92.8227 131.839C92.4126 131.399 92.3276 131.388 92.2227 130.792C92.8343 129.056 95.1259 131.7 97.9982 130.078C97.3437 131.005 96.6498 130.996 95.557 130.978C95.9826 131.067 97.1353 131.181 97.371 131.411C96.6582 131.572 95.2286 131.154 94.4773 130.962L94.2103 131.015C94.7421 132.037 95.2937 132.036 95.98 133.632C97.7734 134.457 101.736 135.804 100.194 138.356L100.084 138.458L99.9342 138.574C99.439 137.93 98.9143 137.253 98.348 136.678C96.8044 135.11 95.8532 135.163 95.0616 133.068C93.9879 132.809 93.6723 132.549 92.8227 131.839Z" fill="#CBC56E"/>
<path d="M95.0625 133.066C95.8436 133.724 95.6257 133.955 96.6924 134.439C99.0195 135.496 100.155 135.581 100.195 138.355L100.085 138.456L99.9351 138.573C99.4399 137.928 98.9153 137.251 98.349 136.676C96.8053 135.108 95.8541 135.161 95.0625 133.066Z" fill="#B7B174"/>
<path d="M142.092 112.102C142.229 112.815 142.391 113.565 142.471 114.284C142.843 115.865 142.908 117.995 142.862 119.653C143.077 120.98 143.003 121.145 144.082 121.967C144.03 122.145 143.88 122.623 143.856 122.778L143.486 123.704C143.4 123.298 143.357 122.917 143.184 122.552C142.328 123.122 141.698 123.993 140.945 124.095L140.795 124.393L140.629 123.655C139.212 120.651 139.08 116.715 138.797 113.415C139.206 113.985 139.146 114.098 139.844 114.342C140.377 114.529 141.683 114.691 141.829 113.951L141.273 113.602L141.32 113.368L141.877 113.124C142.168 112.648 142.073 112.744 142.092 112.102Z" fill="#7A3C1D"/>
<path d="M142.472 114.285C142.843 115.866 142.908 117.997 142.862 119.654C142.538 118.826 141.698 118.661 140.921 118.357C140.873 117.598 140.674 115.815 140.926 115.219C141.548 114.728 142.068 114.615 142.472 114.285Z" fill="#9C472A"/>
<path d="M90.6391 126.803C91.6323 126.782 92.6258 126.771 93.6193 126.77C93.8754 127.181 94.0553 127.563 94.4441 127.84C95.1617 128.562 95.4728 128.688 95.8411 129.672L95.8054 130.039C94.6133 130.517 90.9865 128.033 89.4503 128.913C89.2747 129.444 89.4673 130.535 89.5929 131.087C90.2723 131.89 91.4138 131.891 92.3745 132.323C92.7024 132.47 92.6045 133.713 92.7021 133.844C93.4827 134.193 94.3052 134.592 95.1145 134.849L95.3206 135.015C97.5374 136.829 97.3574 138.26 99.9332 138.575C99.9045 139.955 99.5322 142.608 99.0431 143.892C98.7806 142.738 99.3894 140.449 99.6103 139.116C98.5093 138.431 96.2811 138.674 95.8131 137.588L96.2733 137.454C95.7267 136.475 94.5017 135.204 93.446 134.938C91.86 134.537 91.7964 132.371 90.3708 132.277C90.093 134.413 92.2206 134.049 91.4795 135.48L91.2711 135.539C91.2285 135.057 91.2353 134.968 91.0888 134.495C88.875 133.445 90.8983 133.424 89.283 131.337C87.6157 129.068 82.4402 131.421 81.9922 128.154L82.227 127.908C82.7722 127.905 82.9185 128.046 83.2656 128.451L83.1905 128.942L83.4438 129.179C85.118 128.488 85.1464 128.438 86.268 129.751C88.0955 130.602 87.5942 129.328 88.4067 128.58C90.423 128.228 93.336 128.459 95.1071 129.472L95.34 129.257C94.9504 128.517 93.5042 127.369 92.6518 127.227C91.8912 127.101 91.104 127.201 90.3697 126.996L90.6391 126.803Z" fill="#C8C6A3"/>
<path d="M84.1072 128.914C84.7504 128.946 85.2034 128.887 85.5901 129.429L85.4785 129.861C84.9581 129.898 84.5898 129.987 84.1358 129.754C83.9056 129.274 83.9618 129.539 84.1072 128.914Z" fill="#948D75"/>
<path d="M134.776 84.7383C136.036 85.6607 136.569 85.6895 136.733 87.2876C137.373 87.5063 137.052 87.4843 137.735 87.3231C137.63 87.9149 137.535 88.4946 137.399 89.0811L137.074 89.6424C137.275 90.4067 137.339 90.4839 137.749 91.1786C137.507 91.5936 137.116 92.3201 136.824 92.6674L136.687 92.9C135.918 92.9362 135.981 92.811 135.528 92.2843C134.821 92.5357 134.739 92.5236 134.105 92.294L134.303 89.4709C134.277 88.0459 134.138 85.9896 134.776 84.7383Z" fill="#A1542B"/>
<path d="M136.673 90.3192L137.073 89.6445C137.273 90.4089 137.338 90.4861 137.748 91.1808C137.506 91.5957 137.115 92.3222 136.823 92.6695L136.685 92.9021C135.917 92.9383 135.98 92.8131 135.527 92.2864C135.665 91.8189 136.379 90.782 136.673 90.3192Z" fill="#A1542B"/>
<path d="M136.673 90.3164C136.698 91.2267 136.508 92.0124 136.823 92.6667L136.685 92.8993C135.917 92.9355 135.98 92.8103 135.527 92.2836C135.665 91.8161 136.379 90.7792 136.673 90.3164Z" fill="#D5CB9B"/>
<path d="M138.799 113.416C138.621 112.319 138.202 106.451 139.972 106.779C141.072 107.716 141.514 109.664 142.173 111.169C141.933 111.852 141.897 111.555 142.094 112.103C142.075 112.745 142.17 112.649 141.879 113.125L141.322 113.369L141.275 113.603L141.831 113.952C141.686 114.692 140.379 114.53 139.846 114.343C139.148 114.099 139.208 113.986 138.799 113.416Z" fill="#602C19"/>
<path d="M155.515 125.392C157.957 125.376 157.739 124.555 159.026 124.591C159.305 124.888 159.213 124.714 159.225 125.164C158.714 125.654 156.962 125.68 156.245 125.663C155.92 126.295 155.306 126.308 155.208 126.49C154.83 127.196 154.534 127.944 153.97 128.581C152.189 128.527 150.254 128.248 148.359 128.161H147.902L148.096 127.901L147.635 127.515L147.109 127.524C146.476 127.524 146.146 127.513 145.52 127.439C146.177 127.369 146.834 127.305 147.492 127.245C147.7 126.999 147.934 126.776 148.191 126.583C149.504 125.575 150.901 126.163 152.418 126.064C153.405 125.998 154.584 125.26 155.515 125.392Z" fill="#D5CB9B"/>
<path d="M155.514 125.392C157.956 125.376 157.738 124.555 159.026 124.591C159.305 124.888 159.213 124.714 159.224 125.164C158.714 125.654 156.961 125.68 156.244 125.663C155.496 125.775 154.976 126.216 154.332 126.642C154.02 126.6 153.77 126.562 153.455 126.613C151.924 126.864 150.972 126.746 149.477 126.427C151.769 126.229 153.431 126.513 155.514 125.392Z" fill="#B19A5F"/>
<path d="M147.637 127.513C148.247 127.171 148.378 127.019 149.027 127.106L149.339 127.302C149.194 127.869 148.906 127.903 148.36 128.159H147.903L148.097 127.899L147.637 127.513Z" fill="#828240"/>
<path d="M147.903 128.16H148.36C150.254 128.247 152.189 128.527 153.971 128.58C154.698 128.608 158.003 129.292 158.565 129.593L158.532 129.783C156.723 129.961 155.633 129.129 154.223 129.044C152.049 128.963 149.875 129.082 147.704 129.207C146.342 129.284 144.78 129.06 143.448 129.297C140.75 129.775 138.043 130.279 135.504 131.308C132.506 132.524 127.147 136.934 124.246 137.167L125.054 136.651C126.619 136.314 127 135.939 128.273 135.001L129.089 134.434C131.267 133.629 133.081 132.067 134.751 131.297C137.578 129.992 144.848 128.436 147.903 128.16Z" fill="#E5DDB2"/>
<path d="M131.027 150.76C131.586 151.564 132.704 153.057 133.477 151.669C134.115 150.529 135.553 150.056 136.698 150.868L136.801 151.233C136.511 151.568 136.289 151.803 135.978 152.117C136.121 152.517 136.13 152.469 136.107 152.9C135.8 153.16 135.805 153.175 135.441 153.335C135.125 154.286 136.05 155.21 136.007 157.129C135.59 157.067 135.614 157.056 135.254 156.825C135.078 156.313 135.105 156.126 135.102 155.596C134.333 154.908 132.56 154.233 132.342 153.272L132.721 152.853C132.098 152.873 132.058 152.882 131.73 152.466C131.403 151.732 131.266 151.742 130.783 151.118L130.652 150.946L131.027 150.76Z" fill="#D5CB9B"/>
<path d="M132.723 152.852C133.063 153.349 133.206 153.551 133.667 153.948C134.33 154.522 135.468 154.497 135.408 155.371L135.104 155.594C134.335 154.906 132.562 154.231 132.344 153.27L132.723 152.852Z" fill="#493E0C"/>
<path d="M142.171 111.168C144.375 115.742 144.769 116.653 144.082 121.967C143.003 121.145 143.078 120.98 142.863 119.653C142.908 117.995 142.843 115.865 142.472 114.284C142.391 113.565 142.23 112.815 142.092 112.102C141.895 111.554 141.931 111.851 142.171 111.168Z" fill="#C26741"/>
<path d="M120.131 150.75L120.644 151.417C120.869 151.921 121.143 152.809 121.468 153.184C122.061 152.882 121.957 151.611 123.395 152.297C122.891 152.393 122.784 152.383 122.285 152.385L122.064 152.569L122.122 152.856C123.875 153.654 125.248 153.312 124.513 156.011C124.052 155.455 124.374 154.791 124.09 154.115C123.461 154.363 123.455 154.433 122.896 154.173C122.688 153.851 122.696 153.749 122.419 153.601C122.615 154.189 122.801 155.305 122.332 155.77C120.882 154.748 121.991 153.643 119.593 152.089C119.546 151.538 119.614 151.414 119.764 150.895L120.131 150.75Z" fill="#C8C6A3"/>
<path d="M127.127 93.9531C127.415 96.621 126.234 98.5923 126.038 101.243C125.94 102.595 125.517 104.07 125.349 105.428C125.1 104.383 124.74 103.593 124.504 102.556C125.822 100.984 126.904 96.0267 127.127 93.9531Z" fill="#D5CB9B"/>
<path d="M139.078 84.2422C139.581 85.5575 139.267 87.8745 138.873 89.2006C138.55 89.1352 138.565 89.0806 138.261 88.8667L137.799 89.4026C137.474 89.2474 137.605 89.3571 137.398 89.0828C137.534 88.4963 137.629 87.9166 137.734 87.3248C137.906 86.5841 138.143 86.0541 138.426 85.3538L138.494 85.0907L139.078 84.2422Z" fill="#A1542B"/>
<path d="M138.426 85.3516C138.842 86.2159 138.582 87.9674 138.261 88.8645L137.799 89.4004C137.474 89.2452 137.605 89.3549 137.398 89.0806C137.534 88.4941 137.629 87.9144 137.734 87.3226C137.906 86.5819 138.143 86.0519 138.426 85.3516Z" fill="#C77553"/>
<path d="M134.777 84.7372C135.339 84.2864 135.561 84.1495 136.187 83.7852C136.288 84.0043 136.541 84.6327 136.682 84.7656C137.202 84.8625 137.872 85.0151 138.386 85.0432L138.496 85.0878L138.428 85.3509C138.145 86.0513 137.908 86.5813 137.736 87.322C137.053 87.4832 137.375 87.5052 136.735 87.2865C136.57 85.6884 136.037 85.6596 134.777 84.7372Z" fill="#7A3C1D"/>
<path d="M136.188 83.7853C136.843 83.4348 137.535 83.0486 138.197 82.7227L139.08 84.2395L138.496 85.088L138.386 85.0434C137.872 85.0153 137.202 84.8627 136.682 84.7657C136.541 84.6328 136.288 84.0045 136.188 83.7853Z" fill="#5A361E"/>
<path d="M136.68 84.7684C136.778 84.3064 136.79 84.3411 137.138 84.0102C137.717 83.927 137.431 83.8949 138.009 84.2C138.217 84.5642 138.297 84.6421 138.384 85.046C137.87 85.0179 137.2 84.8653 136.68 84.7684Z" fill="#602C19"/>
<path d="M137.399 89.0833C137.606 89.3576 137.475 89.2479 137.799 89.4031L138.261 88.8672C138.565 89.081 138.551 89.1356 138.874 89.2011C138.643 89.6425 138.039 90.7434 137.887 91.1899L137.749 91.1808C137.339 90.4861 137.275 90.4089 137.074 89.6446L137.399 89.0833Z" fill="#C26741"/>
<path d="M147.197 94.3825C146.51 90.9037 148.382 91.2779 149.98 93.6801C152.089 96.8837 153.263 100.287 153.336 104.127C153.507 105.499 153.346 106.472 153.118 107.838C152.898 108.962 152.593 110.849 151.564 111.406L151.172 111.245C149.859 109.67 148.24 102.634 148.208 100.289C147.683 99.0289 147.463 96.8619 147.379 95.5029L147.197 94.5693V94.3825Z" fill="#602C19"/>
<path d="M149.979 93.6836C152.089 96.8872 153.263 100.291 153.336 104.13L152.83 103.696C152.874 102.902 152.342 101.376 152.09 100.531C151.594 98.9516 149.711 95.103 149.979 93.6836Z" fill="#C77553"/>
<path d="M152.091 100.531C152.343 101.376 152.874 102.902 152.831 103.695L153.336 104.13C153.508 105.503 153.346 106.475 153.118 107.842L152.631 106.259C152.304 104.669 153.05 104.615 151.676 103.686C150.986 103.221 152.06 101.659 152.091 100.531Z" fill="#9C472A"/>
<path d="M152.629 106.259C152.652 105.443 152.622 104.464 152.829 103.695L153.335 104.13C153.506 105.503 153.344 106.475 153.117 107.842L152.629 106.259Z" fill="#C26741"/>
<path d="M147.379 95.5039C148.918 95.7371 149.214 97.463 148.802 98.694L148.808 98.4856C148.82 97.9655 148.873 97.7051 148.66 97.2328L148.432 97.1863C147.893 97.9607 148.322 99.529 148.208 100.29C147.683 99.0299 147.463 96.863 147.379 95.5039Z" fill="#5A361E"/>
<path d="M121.947 80.321C122.442 80.0931 122.408 80.1103 122.957 80.1161C123.692 80.6924 123.563 81.1737 123.546 82.0692C123.474 83.232 123.411 84.3694 123.278 85.5277L123.135 86.4876C122.975 88.4761 122.214 91.5402 121.295 93.2728C121.175 93.633 121.014 94.1848 120.856 94.5103C120.751 94.7566 120.416 95.5955 120.31 95.7916C119.935 96.798 119.313 99.2685 118.106 99.2136C117.197 98.3349 117.16 96.0581 117.111 94.8218C117.05 94.3835 117.031 92.6611 117.013 92.137L117 91.3672C117.061 88.8478 117.113 88.2172 118.58 86.2137L118.72 85.9932C119.525 84.6091 121.088 81.1503 121.947 80.321Z" fill="#9C472A"/>
<path d="M121.95 80.321C122.444 80.0931 122.41 80.1103 122.959 80.1161C123.694 80.6924 123.565 81.1737 123.549 82.0692C123.476 83.232 123.413 84.3694 123.281 85.5277L122.987 85.6249C121.774 86.0389 120.126 87.2843 118.991 86.9654C118.71 86.6366 118.757 86.4392 118.723 85.9932C119.527 84.6091 121.091 81.1503 121.95 80.321Z" fill="#602C19"/>
<path d="M121.949 80.321C122.443 80.0931 122.41 80.1103 122.959 80.1161C123.694 80.6924 123.564 81.1737 123.548 82.0692L123.064 81.9532C122.683 82.1517 122.678 82.1752 122.261 82.2498C121.925 81.6436 122.369 81.1274 121.949 80.321Z" fill="#5A361E"/>
<path d="M117.012 92.1367C118.306 92.3281 119.141 93.4189 120.525 94.0233C120.609 94.1449 120.791 94.3888 120.854 94.51C120.749 94.7563 120.415 95.5952 120.308 95.7913C119.934 96.7978 119.312 99.2682 118.105 99.2133C117.196 98.3346 117.159 96.0578 117.11 94.8215C117.049 94.3832 117.029 92.6609 117.012 92.1367Z" fill="#57351C"/>
<path d="M117.012 92.1367C118.306 92.3281 119.141 93.4189 120.525 94.0233C120.609 94.1449 120.791 94.3888 120.854 94.51C120.749 94.7563 120.415 95.5952 120.308 95.7913C120.042 95.9533 119.586 96.4183 119.265 96.6813C118.984 95.5256 119.294 95.1225 118.188 94.5565C117.635 94.5899 117.624 94.5623 117.11 94.8215C117.049 94.3832 117.029 92.6609 117.012 92.1367Z" fill="#7A3C1D"/>
<path d="M118.58 86.2148C118.557 87.5878 118.045 90.3861 117 91.3684C117.061 88.8489 117.113 88.2184 118.58 86.2148Z" fill="#A1542B"/>
<path d="M120.783 87.7148C121.2 88.0185 121.446 88.0812 121.559 88.6467C121.752 89.6055 120.932 91.5835 119.906 91.7547C118.939 91.1086 119.633 89.8841 119.793 88.9876C119.914 88.4293 120.376 88.0778 120.783 87.7148Z" fill="#C77553"/>
<path d="M78.2566 119.941C79.2507 119.523 79.9576 120.101 80.5394 120.855C80.6903 121.393 80.6929 121.482 81.3319 121.527C81.6593 121.429 81.5937 121.38 81.8324 121.455C83.3887 122.112 84.2342 122.383 85.4566 123.584L85.6962 123.545C85.9748 123.498 86.058 123.48 86.3188 123.401C87.9775 123.831 87.977 125.199 86.7592 126.108C86.2434 126.161 86.0142 126.024 85.6989 125.595C83.1306 124.978 81.2921 126.405 78.6269 126.073L78.5228 125.877C79.0928 125.247 79.5863 125.349 80.3718 125.396L80.0411 125.01C77.0407 124.595 77.026 122.156 78.2566 119.941Z" fill="#B7B174"/>
<path d="M78.2566 119.941C79.2507 119.523 79.9576 120.101 80.5394 120.855C80.6903 121.393 80.6929 121.482 81.3319 121.527C80.6344 121.897 79.2902 122.474 79.0919 123.315C78.8494 124.341 79.5445 124.461 80.0411 125.01C77.0407 124.595 77.026 122.156 78.2566 119.941Z" fill="#C8C6A3"/>
<path d="M78.2578 119.941C79.2518 119.523 79.9588 120.101 80.5406 120.855L80.1662 121.017C79.2479 120.854 78.9189 120.607 78.2578 119.941Z" fill="#59543C"/>
<path d="M80.3724 125.398C82.1034 125.033 84.314 124.524 85.8958 125.392C85.8304 125.461 85.7649 125.529 85.6995 125.597C83.1312 124.98 81.2927 126.408 78.6275 126.075L78.5234 125.88C79.0934 125.25 79.5869 125.351 80.3724 125.398Z" fill="#6B5026"/>
<path d="M81.8338 121.457C83.3901 122.114 84.2356 122.386 85.458 123.586C84.6372 123.626 82.4356 122.198 81.7891 121.675L81.8338 121.457Z" fill="#6B5026"/>
<path d="M143.34 165.008C143.871 165.559 145.252 166.785 145.097 167.455C144.445 167.936 142.255 167.599 141.187 167.571C140.29 167.395 139.546 167.069 139.074 166.252C139.531 165.969 140.332 166.392 140.596 166.25C142.066 165.455 141.671 165.294 143.34 165.008Z" fill="#B7B174"/>
<path d="M86.7007 130.682C87.2193 130.656 86.9751 130.601 87.4453 130.9C88.0361 132.034 87.6908 133.347 86.6731 134.107C85.9868 134.203 86.23 134.196 85.4994 133.797C85.0108 133.271 84.0475 132.298 84.1344 131.589C84.9108 131.068 85.5267 131.484 86.7007 130.682Z" fill="#C8C6A3"/>
<path d="M87.9917 105.898C88.2949 105.934 88.2791 105.95 88.5721 106.055C88.794 106.805 87.6998 107.501 87.7814 109.237L87.7241 109.24C86.6427 108.375 87.3939 106.877 87.9917 105.898Z" fill="#77705D"/>
<path d="M88.5299 135.637C89.1633 135.737 88.942 135.585 89.2943 135.976C89.0684 136.855 87.7863 137.341 86.8646 137.998L86.4839 137.942L86.3633 137.636C87.5868 136.777 87.7787 137.006 88.5299 135.637Z" fill="#C8C6A3"/>
<path d="M80.1836 115.191C81.3646 115.38 82.1572 115.928 82.5425 117.072C81.6011 116.65 80.4499 116.24 80.1836 115.191Z" fill="#1C1910"/>
<path d="M100.063 92.2305C100.582 92.7084 100.488 94.6685 100.483 95.4104C100.148 95.2488 100.253 95.315 99.9821 95.0639C99.8077 94.1587 99.806 93.1203 100.063 92.2305Z" fill="#B7B174"/>
<path d="M133.889 147.09C135.034 147.159 135.62 147.397 136.439 148.17C135.711 148.051 134.276 148.077 133.824 147.603L133.889 147.09Z" fill="#77705D"/>
<path d="M117.072 153.59C117.4 153.871 117.644 154.236 117.776 154.646C117.652 155.346 117.656 155.16 117.146 155.787C117.01 155.733 116.779 155.559 116.647 155.47L116.621 155.14C117.027 154.491 117.088 154.357 117.072 153.59Z" fill="#59543C"/>
<path d="M122.505 91.082C122.959 92.0463 122.75 93.5937 122.479 94.5956L122.237 94.2212C122.119 93.1802 122.266 92.098 122.505 91.082Z" fill="#6B5026"/>
<path d="M84.1992 109C84.9245 109.367 85.3381 110.368 85.6006 111.1C84.4124 110.816 84.265 110.082 84.1992 109Z" fill="#3F3828"/>
<path d="M136.535 153.941C137.69 153.954 137.858 154.148 138.685 154.982C137.466 155.276 137.197 154.846 136.535 153.941Z" fill="#3F3828"/>
<path d="M98.7253 86.1641C99.1054 86.339 98.977 86.256 99.2711 86.5587C99.4183 87.1199 99.1539 87.4843 98.903 88.0379C98.5826 88.0545 98.7394 88.097 98.4532 87.85C98.359 87.274 98.568 86.7362 98.7253 86.1641Z" fill="#828240"/>
<path d="M136.733 138.734C136.984 138.833 136.854 138.751 137.074 139.04C136.945 139.56 136.442 139.955 136.042 140.351L135.691 139.925C135.845 139.363 136.231 139.18 136.733 138.734Z" fill="#77705D"/>
<path d="M76.7344 104.207C77.7087 104.545 77.8479 105.032 77.6662 105.94C76.8849 105.525 76.7911 105.01 76.7344 104.207Z" fill="#3F3828"/>
<path d="M172.685 128.477C173.062 128.498 172.905 128.43 173.168 128.654C172.974 129.032 172.603 129.194 172.228 129.43C171.534 129.197 171.7 129.407 171.461 128.943C171.786 128.567 172.173 128.572 172.685 128.477Z" fill="#3F3828"/>
<path d="M147.188 112.512C147.694 112.55 147.755 112.52 148.209 112.767C147.859 113.059 147.44 113.027 146.961 113.071C146.282 113.096 146.508 113.208 146.016 112.943C146.352 112.592 146.696 112.599 147.188 112.512Z" fill="#3F3828"/>
<path d="M118.926 76.3281L119.336 76.5966C119.58 77.2454 119.486 77.4984 119.402 78.215L118.905 77.8377C118.661 77.2922 118.81 76.9266 118.926 76.3281Z" fill="#3F3828"/>
<path d="M83.3668 113.395C83.8538 113.894 84.3784 114.562 84.6094 115.22C83.4702 114.86 83.3043 114.507 83.3668 113.395Z" fill="#3F3828"/>
<path d="M144.882 70.2734C145.09 71.1784 144.672 71.6898 143.979 72.1548L143.906 71.6798C144.068 71.1285 144.499 70.7183 144.882 70.2734Z" fill="#59543C"/>
<path d="M130.143 76.832L130.492 77.0556C130.614 77.5766 130.299 78.2407 130.11 78.7827C129.926 78.7826 130.034 78.8029 129.813 78.6385C129.736 77.9688 129.949 77.4846 130.143 76.832Z" fill="#1C1910" fill-opacity="0.988235"/>
<path d="M168.829 122.129L169.239 122.284L169.292 122.538C168.91 122.901 168.512 122.99 168.013 123.171C167.878 123.119 167.781 123.03 167.656 122.938C167.921 122.496 168.293 122.42 168.829 122.129Z" fill="#59543C"/>
<path d="M141.501 100.816C141.671 100.968 141.65 101.013 141.753 101.249C141.592 101.693 141.099 101.934 140.681 102.223L140.461 101.955C140.576 101.448 141.067 101.17 141.501 100.816Z" fill="#59543C"/>
<path d="M98.4688 81.1172C99.1184 81.6985 99.0914 82.8566 99.1035 83.6505C98.5002 83.1097 98.5175 81.9671 98.4688 81.1172Z" fill="#59543C"/>
<path d="M87.919 144.855L88.1954 145.208C88.3349 145.918 88.2122 146.114 87.9965 146.839C87.2792 146.262 87.6436 145.587 87.919 144.855Z" fill="#3F3828"/>
<path d="M138.904 139.707C139.237 139.806 139.194 139.802 139.504 139.969C139.408 140.331 138.992 140.448 138.554 140.712L138.161 140.77L138.027 140.563C138.244 140.082 138.463 139.999 138.904 139.707Z" fill="#3F3828"/>
<path d="M140.956 103.09L141.124 103.185L141.197 103.494C140.885 103.964 140.632 104.044 140.139 104.314C139.952 104.232 140.074 104.296 139.805 104.065C140.062 103.613 140.498 103.403 140.956 103.09Z" fill="#77705D"/>
<path d="M91.6616 108.543C92.1055 109.042 92.0845 110.103 92.1428 110.801L91.7445 110.575C91.5093 109.816 91.6054 109.334 91.6616 108.543Z" fill="#77705D"/>
<path d="M114.187 95.2773C114.594 95.4694 114.457 95.3965 114.792 95.7378C115.032 96.2859 114.935 96.6487 114.88 97.2486C114.533 96.6609 114.141 95.9511 114.187 95.2773Z" fill="#3F3828"/>
<path d="M147.198 94.5695C146.854 95.0386 146.714 95.2993 146.224 95.6239L146.082 95.4863C146.331 94.7472 146.462 94.5615 147.198 94.3828V94.5695Z" fill="#5A361E"/>
<path d="M135.439 105.781C135.8 106.452 135.373 107.348 135.128 108.017C134.874 107.188 135.171 106.611 135.439 105.781Z" fill="#77705D"/>
<path d="M88.3711 110.625C89.0992 111.3 89.0597 111.727 89.0664 112.686C88.6273 112.277 88.5402 111.328 88.3711 110.625Z" fill="#77705D"/>
<path d="M111.262 151.435C112.06 151.301 112.497 151.479 113.185 151.837C112.207 151.951 112.052 151.989 111.262 151.435Z" fill="#948D75"/>
</svg>
