<svg width="219" height="270" viewBox="0 0 219 270" fill="none" xmlns="http://www.w3.org/2000/svg">
<path d="M100.854 0.168769C108.944 -1.09052 117.874 4.96327 124.282 9.48941C127.282 11.6083 137.348 20.2692 139.316 23.1384C143.288 26.834 146.704 31.2425 149.994 35.5431C151.653 37.7121 153.525 40.6447 155.424 42.4979C157.095 42.28 157.645 40.0301 158.693 39.2233C160.022 36.8796 162.418 34.0869 164.176 32.0309C171.475 23.495 182.645 11.6922 193.764 8.72643C196.862 8.12285 197.052 8.09478 199.678 6.37262C200.186 5.87599 202.039 5.00204 202.765 4.62807C205.655 5.67847 205.571 6.57013 205.87 9.4336C212.5 16.4202 213.464 26.7835 212.991 36.0755C211.711 61.2468 210.852 86.6648 213.642 111.767C214.271 117.372 215.85 123.239 216.614 128.933C218.649 143.804 218.816 158.87 217.109 173.782C216.649 177.551 215.295 186.524 213.91 190.124C210.828 205.654 198.24 226.727 187.51 238.111C183.899 241.942 177.211 247.437 172.898 250.425C166.461 254.88 151.823 261.217 144.135 262.106C142.639 262.777 140.762 263.091 139.128 263.523C134.854 264.656 132.699 265.792 129.116 268.255C127.19 268.338 122.686 268.629 121.055 268.031C120.272 267.767 119.18 267.724 118.326 267.637C108.39 267.68 106.424 268.044 96.8589 269.999C89.3221 265.057 87.5142 264.632 78.9498 262.73C73.4951 261.517 62.4963 257.487 57.9415 254.459C50.965 252.798 35.2035 237.32 30.6537 230.828C27.8302 227.732 25.0502 222.629 23.133 218.935C16.0054 205.655 10.558 187.428 8.81598 172.572C8.17212 167.511 7.40591 159.39 7.45606 154.385C6.97099 152.073 7.12978 145.913 7.09501 143.37C6.95293 132.917 7.32869 122.46 7.91504 112.026C8.14738 107.893 7.94246 102.683 8.44792 98.7216C8.02102 82.9551 6.73396 68.5499 2.85677 53.166C0.668115 44.4834 -3.95122 17.01 7.00509 13.3685C9.53138 15.207 9.09579 16.865 11.0307 18.8365C12.8112 20.6505 15.8871 22.097 17.7872 23.8312C23.2674 28.8326 28.8244 34.1183 33.4558 39.9282C36.0032 43.1238 37.9601 46.4622 40.9177 49.3447C41.3466 49.3233 42.5023 49.2264 42.6778 48.8999C44.0434 46.3596 46.2053 42.2305 47.5803 39.9185C52.3935 31.8254 65.3101 13.2332 72.5163 8.0911C73.7812 6.28138 80.5297 2.04934 82.8959 1.29504C86.0487 0.289749 90.4022 0.451838 93.3227 1.87689C96.1284 1.82709 98.1349 0.816124 100.854 0.168769Z" fill="#D23401"/>
<path d="M202.763 4.62891C205.653 5.67931 205.569 6.57097 205.868 9.43444C212.498 16.421 213.462 26.7844 212.989 36.0763C211.709 61.2476 210.85 86.6656 213.64 111.768C214.269 117.373 215.848 123.24 216.612 128.934C218.647 143.804 218.814 158.871 217.107 173.783C216.647 177.552 215.293 186.525 213.908 190.125C210.826 205.654 198.238 226.727 187.508 238.112C183.897 241.943 177.209 247.438 172.896 250.426C166.459 254.881 151.821 261.217 144.133 262.106C142.637 262.778 140.76 263.092 139.126 263.523C134.852 264.656 132.697 265.793 129.114 268.256C127.188 268.339 122.684 268.63 121.053 268.032C120.27 267.768 119.178 267.724 118.324 267.637C121.597 264.362 122.583 262.858 124.712 258.898C131.08 248.424 125.543 226.523 123.47 214.806C122.714 212.961 121.754 211.558 121.502 209.571C120.979 207.832 121.041 205.255 120.996 203.376C121.016 200.761 120.927 194.834 121.454 192.574C121.67 183.878 124.73 168.059 126.994 159.585C127.45 158.713 129.067 153.285 129.445 152.087C131.029 147.016 132.7 141.974 134.457 136.961C138.093 126.62 143.538 116.859 149.497 107.723C151.031 105.371 152.423 102.16 153.929 99.9088C156.053 96.7349 158.995 93.059 161.432 90.0739C163.349 87.6245 167.264 83.0819 168.739 80.7041C172.177 76.6278 175.935 71.1077 179.431 67.4709C180.579 66.4128 181.53 65.333 182.576 64.1779C185.17 61.887 184.101 57.1797 184.623 54.2858C185.285 50.6089 186.116 46.7137 187.047 43.0929C187.772 40.2689 189.304 37.5495 190.211 34.6008C193.514 28.9447 195.961 22.8053 197.647 16.4157C198.221 14.2403 197.982 10.1824 198.805 8.13906C199.661 7.30121 199.397 7.67251 199.676 6.37346C200.184 5.87683 202.037 5.00288 202.763 4.62891Z" fill="#C12D06"/>
<path d="M125.905 202.837C128.916 199.584 131.59 200.349 133.777 198.069C135.999 195.752 138.59 190.647 139.721 187.709C140.05 186.855 139.979 184.565 140.452 183.587C143.319 178.362 145.5 172.796 147.874 167.34C148.704 165.433 149.337 163.213 150.256 161.427L150.858 161.613C151.892 157.054 164.201 135.505 169.132 136.25C173.6 139.392 171.824 147.44 176.405 149.793C179.105 151.18 184.687 146.745 186.126 144.684C187.534 142.669 188.413 139.029 189.924 136.953C193.582 132.956 198.094 129.517 202.682 126.67C203.255 126.314 203.203 126.57 203.772 125.91C206.364 128.383 203.749 138.105 201.81 140.277L202.012 140.188L201.63 139.416C201.422 139.661 200.612 140.641 200.506 140.915C199.869 142.573 200.219 146.159 200.765 147.754C201.136 148.84 202.561 150.872 202.613 151.732C202.862 155.349 202.488 159.281 203.394 162.812C203.864 164.028 203.521 165.107 203.419 166.383C203.07 170.78 203.191 175.26 203.479 179.653C203.044 179.321 202.774 179.157 202.304 178.874L202.128 179.534C202.336 181.081 203.569 182.619 204.712 183.616C207.521 184.337 207.513 182.401 210.27 181.45L210.89 181.847C211.971 184.743 210.376 189.528 211.393 190.742C211.439 190.334 211.49 189.926 211.544 189.518C211.824 187.41 212.283 184.484 214.046 183.134L214.591 183.509C214.545 185.799 213.207 187.996 213.908 190.124C210.826 205.653 198.238 226.726 187.508 238.111C183.897 241.942 177.209 247.437 172.896 250.425C166.459 254.88 151.821 261.216 144.133 262.105C142.637 262.777 140.76 263.091 139.126 263.522C134.852 264.655 132.697 265.791 129.114 268.255C127.188 268.338 122.684 268.629 121.053 268.031C120.27 267.767 119.178 267.723 118.324 267.636C121.597 264.361 122.583 262.857 124.712 258.897C131.08 248.423 125.543 226.522 123.47 214.805C123.605 214.558 123.362 213.901 123.274 213.527L123.749 213.302L124.499 213.873C123.844 208.53 123.282 208.141 125.905 202.837Z" fill="#9F1702"/>
<path d="M124.712 258.898C127.303 259.216 127.602 259.838 129.196 261.856C129.169 262.184 129.152 262.438 129.228 262.758L130.382 263.417L129.595 263.865L129.454 263.738C128.77 264.62 126.765 265.99 125.811 266.863C124.341 267.16 122.382 267.474 121.053 268.032C120.27 267.768 119.178 267.725 118.324 267.638C121.597 264.363 122.583 262.859 124.712 258.898Z" fill="#744414"/>
<path d="M129.197 261.857L129.55 262.017C131.224 262.782 131.562 263.167 132.856 264.473C133.972 264.644 142.973 260.851 144.134 262.107C142.638 262.779 140.762 263.093 139.128 263.524C134.854 264.657 132.699 265.794 129.116 268.257C127.19 268.34 122.686 268.631 121.055 268.033C122.384 267.475 124.342 267.16 125.812 266.863C126.767 265.991 128.772 264.62 129.456 263.738L129.597 263.865L130.384 263.417L129.229 262.759C129.154 262.438 129.17 262.184 129.197 261.857Z" fill="#5D3309"/>
<path d="M199.681 6.37346C200.188 5.87683 202.041 5.00288 202.767 4.62891C205.677 14.8619 206.752 32.4572 201.265 41.8788C202.529 43.614 202.425 43.5328 202.031 45.9053C201.235 50.7011 201.336 52.0744 197.451 55.1183C197.998 55.771 198.329 55.8415 199.1 56.1797L198.972 56.5731C198.574 56.2589 198.278 55.9929 197.904 55.6507C197.397 55.9989 196.042 57.3658 195.83 57.8645C192.957 64.5994 187.37 70.6746 183.83 77.098C183.947 75.577 184.619 74.0888 184.558 73.4294L184.155 73.3927C181.435 75.7438 178.45 78.8763 177.216 82.2247C175.765 86.2432 174.763 86.3197 171.932 88.6795C170.97 89.4813 167.928 96.001 166.912 97.0246C161.662 102.32 159.38 106.062 156.136 112.743C154.958 110.415 160.154 105.431 160.08 102.701C156.309 103.352 154.488 114.781 152.044 117.528C151.879 117.714 151.697 119.051 151.667 119.372L151.331 119.611C150.745 119.005 150.513 117.967 150.469 117.145C152.908 112.796 154.583 107.001 157.573 102.812C158.083 102.097 160.124 100.71 160.91 100.173L161.557 100.289L161.777 100.857C162.462 100.335 162.834 99.6488 163.318 98.9266L162.962 98.7241C161.637 99.1084 161.479 99.1973 160.372 100.024C161.549 97.4564 168.349 93.4848 168.679 90.5708C167.25 91.1313 167.124 92.1984 165.941 92.547C165.803 91.531 165.72 92.0306 166.424 91.0494L165.347 91.1276C166.246 89.1428 170.989 88.6969 171.225 83.5508L173.174 81.4945C174.538 79.15 184.517 69.0055 184.859 66.9856C184.483 66.9348 184.257 66.5164 183.925 66.1407C183.301 65.5098 183.024 64.9373 182.58 64.1779C185.175 61.887 184.106 57.1797 184.627 54.2858C185.289 50.6089 186.121 46.7137 187.051 43.0929C187.777 40.2689 189.309 37.5495 190.216 34.6008C193.518 28.9447 195.965 22.8053 197.651 16.4157C198.226 14.2403 197.987 10.1824 198.809 8.13906C199.665 7.30121 199.401 7.67251 199.681 6.37346Z" fill="#E14A03"/>
<path d="M198.807 8.14062L200.615 8.50224C201.354 20.0818 201.937 29.6006 199.417 41.1073C195.938 48.3121 194.121 55.3879 189.325 61.9958C187.561 64.4252 185.094 64.9378 184.857 66.9872C184.481 66.9364 184.255 66.518 183.923 66.1423C183.299 65.5113 183.022 64.9388 182.578 64.1795C185.173 61.8885 184.104 57.1813 184.625 54.2874C185.287 50.6104 186.119 46.7153 187.049 43.0945C187.775 40.2705 189.307 37.551 190.213 34.6023C193.516 28.9462 195.963 22.8069 197.649 16.4172C198.224 14.2419 197.985 10.184 198.807 8.14062Z" fill="#FD6F1B"/>
<path d="M200.616 8.5C204.315 12.6084 203.129 28.2241 202.641 33.812C202.527 35.1141 202.267 38.5872 201.595 39.6964C200.848 40.1355 200.057 40.5413 199.418 41.1051C201.938 29.5984 201.355 20.0795 200.616 8.5Z" fill="#F76812"/>
<path d="M182.575 64.1797C183.019 64.939 183.295 65.5115 183.919 66.1425C184.251 66.5181 184.478 66.9365 184.854 66.9873C184.511 69.0073 174.532 79.1518 173.168 81.4962L171.22 83.5526C170.983 88.6987 166.24 89.1445 165.342 91.1293L166.419 91.0511C165.714 92.0324 165.798 91.5327 165.935 92.5487C167.118 92.2001 167.244 91.133 168.673 90.5726C168.343 93.4865 161.543 97.4582 160.367 100.026L160.174 98.9076C156.306 100.848 152.904 108.082 151.022 111.758C151.793 111.524 152.342 110.977 153.005 110.459L152.739 110.869C150.83 113.848 149.148 116.907 146.838 119.811C146.173 120.647 145.333 122.907 144.747 123.81C144.171 124.695 143.299 125.553 142.744 126.513C142.381 127.141 143.054 129.993 142.839 130.165C141.658 131.106 138.581 133.387 137.69 134.481C137.181 135.105 136.876 139.715 136.54 140.701C136.088 142.027 134.982 143.198 134.83 144.628C133.77 141.294 136.834 137.943 135.659 137.012C135.275 137.962 135.296 137.608 134.872 138.187C133.333 140.287 132.902 143.519 131.886 145.942C125.69 163.115 123.214 177.876 121.553 196.097L121.53 195.702L121.603 195.764L121.453 192.576C121.669 183.88 124.729 168.061 126.992 159.587C127.448 158.715 129.066 153.287 129.444 152.089C131.028 147.018 132.699 141.976 134.456 136.963C138.092 126.622 143.537 116.86 149.496 107.724C151.03 105.372 152.422 102.161 153.928 99.9106C156.052 96.7366 158.994 93.0607 161.431 90.0756C163.348 87.6262 167.263 83.0837 168.738 80.7058C172.176 76.6295 175.933 71.1094 179.43 67.4726C180.578 66.4145 181.529 65.3347 182.575 64.1797Z" fill="#F47735"/>
<path d="M183.923 66.1406C184.255 66.5163 184.481 66.9347 184.857 66.9855C184.515 69.0054 174.535 79.1499 173.172 81.4943C173.597 77.5019 183.63 68.5402 183.923 66.1406Z" fill="#F76812"/>
<path d="M121.504 209.57C123.449 206.767 121.575 200.231 122.254 196.445C123.205 191.138 125.342 186.361 125.18 180.891C125.138 179.476 127.311 175.788 126.595 174.562C125.928 175.792 125.697 176.243 124.799 177.302L124.57 177.096C124.794 172.7 127.397 170.651 127.927 166.732C128.033 165.952 128.106 165.537 128.27 164.757L128.84 164.457C128.95 165.004 129.019 165.338 129.062 165.897L129.092 166.303C129.702 165.021 129.817 164.33 130.143 162.969L130.509 162.82C130.706 162.992 130.613 162.899 130.825 163.153L130.993 163.356L131.045 162.622L131.414 162.43L131.831 162.65C131.8 163.049 128.197 173.903 127.741 175.475C126.418 180.036 125.976 184.461 124.98 189.051C124.298 192.187 123.007 195.475 122.544 198.592C122.314 200.145 122.184 207.11 123.022 208.184C124.937 205.55 124.262 203.317 127.167 200.25L127.358 200.455C126.56 201.359 126.293 201.695 125.907 202.837C123.284 208.141 123.846 208.531 124.502 213.874L123.751 213.302L123.276 213.528C123.364 213.902 123.607 214.559 123.472 214.805C122.716 212.96 121.756 211.557 121.504 209.57Z" fill="#D34919"/>
<path d="M8.44792 98.7241C8.02102 82.9577 6.73396 68.5524 2.85677 53.1686C0.668115 44.4859 -3.95122 17.0126 7.00509 13.3711C7.63156 15.3162 8.358 19.5017 8.90859 20.5829C13.7091 30.0085 19.8495 38.631 25.9227 47.2311C29.2373 51.925 32.4078 59.0529 35.2857 63.8839C38.5819 69.4173 40.7492 72.5455 43.451 78.5378C42.5601 78.0305 41.7013 76.1379 41.0902 75.1025L40.8398 75.5416C41.6902 78.7697 43.4196 79.1591 43.8217 81.1783C44.3476 82.3003 46.3985 85.1243 47.1988 86.1115C48.0322 88.6485 48.8366 91.3516 49.2016 94.0078C49.6262 94.83 50.8724 97.415 51.3956 97.9404C57.7352 107.837 65.1179 119.504 69.8091 130.516C71.0346 133.394 70.4774 138.874 71.286 142.061C71.6795 144.533 74.7661 149.739 74.8363 151.269C74.9486 153.718 76.7772 165.833 78.2204 167.603C79.0448 172.705 80.4569 180.104 80.7835 185.123C81.3197 193.361 81.3314 202.023 81.7235 210.334C81.4714 215.12 82.0277 221.487 82.3741 226.319C82.2621 227.602 81.9468 229.775 82.5506 230.864L82.0251 231.033C79.6987 230.315 77.4595 226.899 75.672 225.164C72.9071 222.481 68.6334 223.836 66.1328 223.052C64.7605 224.315 63.6724 229.112 63.3347 231.055C63.1024 232.391 64.0137 233.677 63.2776 234.747C61.4159 234.55 57.4932 234.58 55.8227 235.361C56.6244 235.501 57.0954 235.566 57.88 235.835L57.6995 236.419C55.8 237.325 53.9958 237.989 51.894 238.028C48.1619 235.11 47.9396 231.212 42.3889 233.566C40.7285 234.27 39.0734 234.006 37.2832 235.162C32.8852 233.779 34.0278 232.841 30.6537 230.83C27.8302 227.734 25.0502 222.631 23.133 218.937C16.0054 205.658 10.558 187.431 8.81598 172.575C8.17212 167.513 7.40591 159.392 7.45606 154.388C6.97099 152.075 7.12978 145.915 7.09501 143.372C6.95293 132.92 7.32869 122.463 7.91504 112.029C8.14738 107.895 7.94246 102.685 8.44792 98.7241Z" fill="#F9721F"/>
<path d="M40.0737 111.723C40.0456 108.948 40.4114 103.374 39.7772 100.927C39.3369 99.229 36.2928 96.8962 35.7355 94.252C35.2204 91.8063 36.814 88.8024 36.3059 87.6702L35.0369 88.6203C35.6944 86.1094 36.8026 84.1516 37.3896 82.0117L37.5601 82.1417C37.7477 82.6357 37.1998 86.1362 37.1192 87.1037L37.3947 87.1916L37.8045 86.4322L37.1072 86.5412L37.7303 86.5887C38.1619 85.5098 38.2027 85.323 38.8993 84.42C39.1955 84.8104 39.6164 88.1083 39.951 89.1804C41.5888 89.2402 44.305 89.9855 46.1693 90.2987C47.1027 89.7837 46.8436 89.8151 47.3798 88.5698C48.6689 90.4521 47.9976 92.5111 49.2014 94.0047C49.626 94.8268 50.8722 97.4119 51.3954 97.9373C57.7351 107.834 65.1177 119.501 69.8089 130.513C71.0345 133.39 70.4772 138.87 71.2859 142.058C71.6793 144.53 74.7659 149.736 74.8361 151.266C74.9484 153.715 76.777 165.829 78.2202 167.6C79.0446 172.702 80.4567 180.101 80.7833 185.12C81.3195 193.358 81.3312 202.02 81.7233 210.331C81.4713 215.117 82.0276 221.484 82.3739 226.316C82.2619 227.599 81.9466 229.772 82.5504 230.86L82.0249 231.03C79.6985 230.312 77.4594 226.896 75.6719 225.161C72.9069 222.478 68.6332 223.833 66.1326 223.049C64.7603 224.312 63.6722 229.109 63.3346 231.052C63.1022 232.388 64.0135 233.673 63.2774 234.744C61.4157 234.547 57.493 234.577 55.8225 235.357C56.6242 235.498 57.0952 235.563 57.8798 235.831L57.6993 236.416C55.7998 237.322 53.9956 237.986 51.8939 238.025C48.1618 235.107 47.9394 231.209 42.3887 233.562C40.7283 234.267 39.0732 234.003 37.283 235.159C32.885 233.776 34.0276 232.838 30.6535 230.827C27.83 227.731 25.05 222.628 23.1328 218.934L23.3979 218.26C24.4733 219.384 25.1587 220.214 26.5102 220.972C27.6522 218.804 28.3282 217.768 29.8134 215.78C30.4125 214.978 29.9281 213.22 30.9648 211.779C32.1211 210.171 35.1321 207.954 35.5457 206.27C35.2077 204.917 34.8112 201.725 35.3595 200.53C35.6724 208.886 37.1299 206.685 39.813 213.855C40.6414 216.07 40.1677 217.554 42.3643 218.794C43.5982 218.835 44.3641 218.562 45.2905 217.854C53.7352 211.4 49.0624 208.271 49.6922 199.697C49.7296 199.189 51.7147 193.916 52.5872 193.341L53.1238 193.673C54.8431 192.351 52.8172 190.289 52.86 188.765C52.8627 186.925 54.0457 183.883 53.9923 182.147C53.7362 173.871 53.684 167.519 56.7091 159.694C57.2182 158.378 56.7964 151.827 57.3052 149.498C58.5434 148.021 59.5547 149.086 60.9764 148.346C62.5416 147.532 62.1481 145.259 62.6432 143.438L63.0049 143.969L62.6101 143.479C62.9471 143.671 63.5525 145.627 64.0109 146.496L64.2302 146.304C64.1743 142.255 64.6988 141.79 62.2859 138.424L61.7323 138.561C61.6808 139.364 61.6771 139.61 61.4953 140.414C59.3838 138.372 58.0737 138.178 55.992 136.558C54.9139 135.72 54.3459 131.244 53.5132 130.017C53.089 129.391 52.0323 129.324 51.7515 128.184L52.3666 128.403C53.1859 127.058 53.2418 127.41 53.2421 126.059C52.2292 124.441 41.3879 112.555 40.0737 111.723Z" fill="#E14A03"/>
<path d="M63.278 234.744C60.9443 230.432 62.2581 223.892 66.8142 221.652L66.9707 221.942L66.1333 223.049C64.761 224.311 63.6728 229.108 63.3352 231.052C63.1029 232.387 64.0142 233.673 63.278 234.744Z" fill="#D23401"/>
<path d="M8.81641 172.574C10.5711 175.578 11.0616 184.138 11.8582 185.25L12.1825 184.992L12.2684 184.086C13.5324 186.05 13.2288 191.71 13.5434 192.882C14.0361 194.717 16.7654 203.166 17.4553 204.29C18.4923 203.792 18.0832 203.807 19.0627 203.914C18.9781 202.508 18.9249 199.862 18.3864 198.674L18.6281 198.258C19.7557 200.797 19.3786 204.379 20.096 206.892C21.2262 210.854 23.5005 212.561 23.4961 216.982L23.2334 217.097C23.2371 217.696 23.2143 217.7 23.3985 218.263L23.1334 218.937C16.0058 205.657 10.5584 187.43 8.81641 172.574Z" fill="#D34919"/>
<path d="M7.45363 154.387C6.96856 152.074 7.12735 145.914 7.09258 143.371C6.95051 132.919 7.32626 122.461 7.91262 112.027C8.14496 107.894 7.94003 102.684 8.44549 98.7227C9.34174 108.228 9.04187 119.281 9.13548 128.889C9.17459 132.897 7.71839 137.826 7.78525 141.968C7.54957 145.808 7.80932 150.877 7.45363 154.387Z" fill="#F47735"/>
<path d="M40.8385 75.543C41.689 78.7711 43.4183 79.1604 43.8205 81.1797C42.3626 79.8382 41.5425 79.8749 40.3845 78.4499C40.0833 77.0188 40.3314 77.0436 40.8385 75.543Z" fill="#E14A03"/>
<path d="M92.6285 205.423C93.5141 206.203 95.7121 205.939 97.4765 206.455C97.9011 206.028 97.8623 206.045 98.0345 205.461L98.3481 205.633L98.5329 206.396C99.9831 204.684 98.6342 201.667 98.6533 199.453C98.7472 188.49 98.2929 176.668 99.1654 165.766C99.5111 168.053 99.0965 178.908 99.0929 182.082C99.0852 189.136 99.126 196.228 99.703 203.357C99.7999 204.552 99.8755 210.237 100.059 210.904C104.051 209.261 102.984 185.358 106.241 182.182C107.012 183.033 106.982 183.214 107.252 184.382C108.209 185.212 107.662 184.998 108.966 185.001C109.72 184.548 110.287 184.436 110.384 183.693C110.793 180.547 111.409 175.744 110.954 172.747L111.282 172.45C112.51 174.534 110.252 190.232 110.604 194.099C110.954 197.937 110.2 203.949 110.687 208.007L111.272 207.427L112.032 207.749C112.055 208.901 112.037 211.409 112.28 212.428C112.704 205.562 112.977 201.868 114.243 195.006C116.313 193.565 116.541 194.183 118.711 194.968C122.703 196.412 119.717 201.069 121.001 203.376C121.046 205.255 120.984 207.832 121.506 209.571C121.759 211.558 122.719 212.961 123.474 214.806C125.548 226.523 131.085 248.424 124.717 258.898C122.587 262.858 121.602 264.362 118.329 267.637C108.392 267.681 106.426 268.045 96.8614 270C89.3247 265.057 87.5168 264.633 78.9524 262.731C73.4976 261.518 62.4989 257.488 57.944 254.46C50.9676 252.799 35.2061 237.321 30.6562 230.828C34.0303 232.839 32.8877 233.777 37.2857 235.16C39.0759 234.005 40.731 234.268 42.3915 233.564C47.9422 231.21 48.1645 235.108 51.8966 238.027C53.9983 237.987 55.8025 237.324 57.702 236.417L57.8825 235.833C57.0979 235.565 56.6269 235.499 55.8253 235.359C57.4958 234.578 61.4184 234.548 63.2801 234.746C64.0162 233.675 63.1049 232.389 63.3373 231.053C63.6749 229.11 64.7631 224.313 66.1354 223.05C68.6359 223.834 72.9096 222.479 75.6746 225.162C77.4621 226.897 79.7012 230.313 82.0276 231.031L82.5531 230.862C81.9494 229.773 82.2646 227.6 82.3766 226.317C82.0303 221.485 81.474 215.119 81.726 210.333C82.6634 207.08 81.1674 202.611 82.3325 200.787C84.7448 201.193 84.8922 204.322 87.136 205.429L87.0534 204.429C91.0022 205.663 88.5474 205.146 92.6285 205.423Z" fill="#901702"/>
<path d="M66.1354 223.051C68.6359 223.835 72.9096 222.479 75.6746 225.163C77.4621 226.898 79.7012 230.313 82.0276 231.031L82.5531 230.862C81.9494 229.773 82.2646 227.601 82.3766 226.318C85.0005 238.789 83.8091 242.955 90.9233 254.584L90.5769 254.651C85.8777 250.159 86.6058 243.001 82.8917 240.316C82.3839 242.144 84.8591 244.95 85.2736 246.526C86.2929 250.396 87.7016 252.756 89.798 256.148L89.2003 255.513C89.8428 256.398 91.1172 257.839 91.1115 258.815C90.7086 259.65 90.4101 259.821 89.7151 260.416C89.3136 262.037 89.3811 262.999 88.3014 263.928C81.3988 264.78 59.6005 254.189 57.944 254.46C50.9676 252.799 35.2061 237.321 30.6562 230.829C34.0303 232.839 32.8877 233.777 37.2857 235.16C39.0759 234.005 40.731 234.268 42.3915 233.564C47.9422 231.21 48.1645 235.109 51.8966 238.027C53.9983 237.988 55.8025 237.324 57.702 236.418L57.8825 235.833C57.0979 235.565 56.6269 235.499 55.8253 235.359C57.4958 234.579 61.4184 234.548 63.2801 234.746C64.0162 233.675 63.1049 232.389 63.3373 231.054C63.6749 229.111 64.7631 224.313 66.1354 223.051Z" fill="#9F1702"/>
<path d="M37.2812 235.159C39.0714 234.004 40.7265 234.267 42.387 233.563C47.9377 231.209 48.16 235.107 51.8921 238.026C53.4867 239.8 56.249 239.976 57.9493 241.854C53.6281 241.118 48.9573 236.234 46.0349 233.273C45.8105 234.86 45.5765 236.446 45.3322 238.03C45.0473 237.239 45.5565 235.796 45.7159 234.625C45.2105 233.854 45.5414 234.118 44.7094 233.782C43.0405 234.656 38.8829 235.989 37.2812 235.159Z" fill="#D23401"/>
<path d="M99.8937 37.3125C101.018 37.3723 106.143 37.4883 106.739 37.8165L107.102 38.397C106.828 39.5503 105.973 40.306 105.162 41.2284C102.727 43.621 103.935 45.1877 101.828 46.1151C101.398 45.2058 101.281 44.6881 100.414 44.1998C99.6012 45.9925 102.033 48.0893 98.9884 48.9983C96.3588 49.7837 93.9662 48.2009 91.9414 50.2964C90.4889 53.5215 91.6509 58.0028 92.6598 61.2717C93.0189 62.435 93.9322 63.3585 94.2394 64.6762C95.0093 64.2805 94.8284 64.2067 95.2911 63.1917C95.5465 63.8828 95.4512 63.3561 95.3743 63.8263C94.7983 67.3482 96.0212 71.3948 96.0098 74.9504C95.967 86.0754 96.8499 97.0397 97.5767 108.12C97.6519 109.265 97.8792 110.435 97.924 111.573C97.9979 113.459 96.5965 118.925 97.0197 120.488C95.8878 130.874 93.6774 139.475 96.4855 149.608C96.7219 150.461 96.2358 160.463 96.1542 161.778C91.7906 165.439 86.2673 156.731 84.5564 153.458C84.0112 152.415 84.5949 148.596 83.4392 146.459C81.4989 142.871 80.144 142.194 77.0889 139.639C75.8259 135.948 74.9577 133.105 73.3059 129.604C73.8873 127.695 73.695 121.155 72.754 119.57C69.0727 113.37 66.4261 105.036 62.7979 99.0937C61.4798 96.9354 52.8535 88.2671 50.6796 88.352C49.9672 89.1501 50.1524 88.7581 50.2196 90.1069C52.8174 91.541 51.5641 95.3493 51.3957 97.939C50.8725 97.4136 49.6262 94.8286 49.2017 94.0064C48.8366 91.3502 48.0323 88.6471 47.1989 86.1101C46.3986 85.1229 44.3476 82.2989 43.8218 81.1769C43.4196 79.1577 41.6903 78.7683 40.8398 75.5402L41.0902 75.1011C41.7013 76.1365 42.5601 78.0291 43.451 78.5364C44.1089 79.539 44.4984 80.3154 45.4682 81.0122C46.2882 80.5035 46.7309 77.7553 47.3196 76.5405C52.422 66.0117 57.8623 58.8891 66.5738 51.0627C77.3442 41.3858 85.9909 39.1085 99.8937 37.3125Z" fill="#F86A0F"/>
<path d="M90.7341 50.2782C92.192 48.79 99.3744 41.7442 101.191 41.8699C104.001 42.0641 103.805 39.104 105.746 38.2578C106.169 39.4566 104.694 39.485 105.16 41.2266C102.726 43.6191 103.934 45.1859 101.827 46.1133C101.397 45.2039 101.28 44.6863 100.413 44.198C99.6001 45.9907 102.031 48.0875 98.9873 48.9965C96.3577 49.7819 93.9651 48.1991 91.9403 50.2946C90.4878 53.5196 91.6498 58.001 92.6587 61.2699C93.0177 62.4332 93.931 63.3566 94.2383 64.6744C89.8162 60.9998 90.3734 55.4293 90.7341 50.2782Z" fill="#F76812"/>
<path d="M47.1992 86.1094C48.5752 88.0407 49.0944 92.1117 49.9926 92.987C50.4339 91.7073 50.3744 91.4643 50.2199 90.1061C52.8178 91.5402 51.5645 95.3485 51.396 97.9382C50.8728 97.4129 49.6266 94.8278 49.202 94.0056C48.837 91.3494 48.0326 88.6463 47.1992 86.1094Z" fill="#D34919"/>
<path d="M193.765 8.72881C196.863 8.12523 197.053 8.09716 199.679 6.375C199.4 7.67406 199.664 7.30275 198.807 8.1406C197.985 10.1839 198.224 14.2419 197.65 16.4172C195.964 22.8069 193.517 28.9462 190.214 34.6023C189.307 37.551 187.775 40.2704 187.05 43.0945C186.119 46.7153 185.288 50.6104 184.626 54.2873C184.104 57.1812 185.173 61.8885 182.579 64.1795C181.533 65.3345 180.582 66.4143 179.434 67.4724C175.937 71.1092 172.18 76.6293 168.742 80.7056C168.881 77.6343 169.003 79.2602 167.825 76.3048C166.026 71.7934 166.556 66.0908 163.828 61.6633C162.09 58.8409 159.216 57.3259 157.341 54.4347C156.682 53.4181 155.172 49.7642 154.637 49.3969L154.447 50.1375C152.833 49.9146 144.127 46.1214 142.271 45.2508L142.418 45.0372C143.992 45.5726 151.313 48.6389 152.344 48.5938C153.309 47.252 152.36 45.582 153.407 43.8785C154.083 43.666 154.363 43.6245 154.958 43.2352C152.208 39.7391 149.607 36.151 146.851 32.6449C144.36 29.4759 141.66 26.7171 139.121 23.6902L139.317 23.1408C143.288 26.8364 146.705 31.2449 149.994 35.5454C151.654 37.7144 153.526 40.6471 155.425 42.5003C157.095 42.2824 157.646 40.0325 158.694 39.2257C160.023 36.8819 162.419 34.0893 164.177 32.0333C171.476 23.4973 182.646 11.6945 193.765 8.72881Z" fill="#DA2F03"/>
<path d="M158.695 39.2235C160.024 36.8797 162.42 34.0871 164.178 32.031C171.477 23.4951 182.647 11.6923 193.766 8.72656C194.273 10.7645 190.401 12.7554 188.962 14.4823C184.467 19.8753 179.08 26.5815 173.249 30.618L172.477 30.7049C172.611 30.1729 172.673 30.0205 172.889 29.5138C165.825 30.3199 168.646 33.3839 167.681 33.7515C165.074 34.7444 160.886 38.802 159.104 39.4725L158.695 39.2235Z" fill="#F47735"/>
<path d="M179.43 67.4678C179.721 66.4885 180.539 65.5013 180.625 64.4636C180.834 61.938 180.497 59.7854 180.923 57.2314C181.246 55.2967 184.229 52.0612 184.583 50.822C186.557 43.9116 184.984 40.2778 190.209 34.5977C189.303 37.5463 187.771 40.2658 187.045 43.0898C186.115 46.7106 185.283 50.6058 184.621 54.2827C184.1 57.1766 185.169 61.8839 182.574 64.1748C181.528 65.3298 180.577 66.4097 179.43 67.4678Z" fill="#E14A03"/>
<path d="M40.9219 49.3474C41.3508 49.326 42.5064 49.2291 42.682 48.9026C44.0476 46.3623 46.2095 42.2332 47.5844 39.9211C52.3977 31.828 65.3143 13.2358 72.5204 8.09375C72.2116 8.699 72.0578 9.23172 71.9067 9.5549C70.3592 12.8622 66.2701 17.2567 64.529 20.1134C60.6335 26.5051 56.6523 32.6381 52.7998 38.9937C50.7436 42.3862 46.9693 50.3092 44.562 52.8298C42.8341 52.8449 41.5096 50.8329 40.9219 49.3474Z" fill="#F47735"/>
<path d="M78.2188 167.602L78.5771 167.137C78.7871 168.581 79.1434 171.687 79.7468 172.891C81.1455 173.868 81.0336 173.48 81.4247 175.177L81.8653 167.802C82.3303 176.701 83.4121 184.39 85.4938 193.075C85.82 194.436 85.1444 197.764 85.5232 198.908C86.3405 201.378 90.8181 203.46 92.6244 205.423C88.5432 205.147 90.998 205.663 87.0493 204.43L87.1318 205.43C84.888 204.322 84.7406 201.194 82.3283 200.788C81.1633 202.612 82.6592 207.081 81.7219 210.333C81.3297 202.022 81.3181 193.36 80.7818 185.122C80.4552 180.103 79.0431 172.704 78.2188 167.602Z" fill="#9F1702"/>
<path d="M112.029 207.75C111.664 203.961 113.314 195.159 113.558 190.819C113.723 187.892 113.345 181.98 113.845 179.847L114.088 179.92C114.081 182.167 113.955 186.727 114.548 188.741C115.007 188.977 119.203 187.633 120.463 187.566C122.361 186.165 121.864 180.636 122.402 178.515C123.774 173.114 124.596 164.167 126.632 159.195L126.995 159.586C124.731 168.06 121.671 183.879 121.456 192.575C120.929 194.835 121.017 200.762 120.998 203.377C119.714 201.07 122.7 196.413 118.708 194.969C116.538 194.184 116.31 193.566 114.24 195.007C112.974 201.868 112.701 205.563 112.277 212.429C112.034 211.41 112.052 208.902 112.029 207.75Z" fill="#9F1702"/>
<path d="M112.08 38.8563C115.795 35.5113 118.722 34.7954 123.793 35.023C125.937 35.1192 131.612 35.5423 133.189 36.303L133.257 36.547C132.294 36.7375 132.545 36.5346 131.992 36.445C127.348 35.6917 120.125 34.7346 115.866 36.8939C113.895 37.8928 110.465 41.1169 110.091 42.9166C108.95 48.3949 108.506 54.7672 107.841 60.2852L103.039 100.822L102.735 100.252L102.842 101.545L102.985 101.267C102.298 99.1593 104.444 78.8734 105.012 75.4842C106.841 64.5835 107.936 53.8635 109.228 42.8738C108.82 42.1773 108.369 41.5273 108.172 40.7539C105.666 46.7238 104.787 44.4489 104.097 51.0806C104.115 49.0493 104.177 47.0183 104.281 44.9897C102.849 45.9652 103.949 46.2105 102.302 46.4983L101.825 46.1116C103.932 45.1842 102.724 43.6174 105.159 41.2248C105.97 40.3024 106.825 39.5468 107.098 38.3934L106.736 37.8129C106.14 37.4847 101.015 37.3688 99.8906 37.309C103.59 36.5206 108.649 37.2221 112.08 38.8563Z" fill="#E14A03"/>
<path d="M97.0214 120.488C98.1754 121.822 97.8267 124.732 97.815 126.634C97.7247 141.188 96.9659 155.81 96.4099 170.369L96.1592 170.713C96.0248 168.74 96.0014 163.763 96.1559 161.778C96.2374 160.464 96.7235 150.461 96.4872 149.609C93.6791 139.475 95.8895 130.874 97.0214 120.488Z" fill="#D34919"/>
<path d="M93.3242 1.87609C96.13 1.82629 98.1364 0.815324 100.856 0.167969C99.4138 1.66822 96.3115 5.52361 93.9604 2.94053C93.604 2.54884 93.4586 2.40915 93.3242 1.87609Z" fill="#D34919"/>
</svg>
